<svg id="city-hall" xmlns="http://www.w3.org/2000/svg" viewBox="0 0 59.212 58.912">
  <defs>
    <style>
      .cls-1 {
        fill: #fff;
      }
    </style>
  </defs>
  <g id="Group_11" data-name="Group 11" transform="translate(0 0)">
    <g id="Group_10" data-name="Group 10">
      <path id="Path_5" data-name="Path 5" class="cls-1" d="M56.251,54.287V53.3a2.959,2.959,0,0,0-1.974-2.771V49.353A2.956,2.956,0,0,0,52.3,46.574V31.407a2.956,2.956,0,0,0,1.974-2.779v-1.74l1.8-3.6,2.847-2.847a.986.986,0,0,0-.184-1.54L30.12,1.44a.985.985,0,0,0-1.027,0L.474,18.9a.986.986,0,0,0-.184,1.54l2.847,2.847,1.8,3.6v1.74a2.956,2.956,0,0,0,1.974,2.779V46.574a2.956,2.956,0,0,0-1.974,2.779v1.177A2.959,2.959,0,0,0,2.961,53.3v.987A2.964,2.964,0,0,0,0,57.247v1.974a.987.987,0,0,0,.986.987H58.225a.987.987,0,0,0,.987-.986h0V57.247A2.964,2.964,0,0,0,56.251,54.287ZM52.3,28.629a.988.988,0,0,1-.987.987H45.4a.988.988,0,0,1-.987-.987v-.987H52.3v.987Zm-48.21-7.17L2.572,19.936l27.035-16.5,27.035,16.5-1.523,1.523L30.124,6.077a.986.986,0,0,0-1.035,0Zm29.459-6.152a3.947,3.947,0,1,1-3.947-3.947A3.947,3.947,0,0,1,33.554,15.306ZM6.532,25.668l-.987-1.974H53.668l-.987,1.974Zm35.9,1.974v.987a.988.988,0,0,1-.987.987H35.527a.988.988,0,0,1-.987-.987v-.987Zm-17.763,0v.987a.988.988,0,0,1-.987.987H17.764a.988.988,0,0,1-.987-.987v-.987Zm-9.869,0v.987a.988.988,0,0,1-.987.987H7.9a.988.988,0,0,1-.987-.987v-.987Zm0,22.7H6.908v-.987a.988.988,0,0,1,.987-.987h5.921a.988.988,0,0,1,.987.987v.987Zm0-3.766V31.407a2.945,2.945,0,0,0,.987-.588,2.944,2.944,0,0,0,.987.588V46.574a2.945,2.945,0,0,0-.987.588A2.947,2.947,0,0,0,14.8,46.574Zm9.869,3.766H16.777v-.987a.988.988,0,0,1,.987-.987h5.921a.988.988,0,0,1,.987.987v.987Zm7.895-.987v.987H26.646v-.987a2.956,2.956,0,0,0-1.974-2.779V31.407a2.956,2.956,0,0,0,1.974-2.779v-.987h5.921v.987a2.956,2.956,0,0,0,1.974,2.779V46.574A2.956,2.956,0,0,0,32.567,49.353Zm9.869.987H34.541v-.987a.988.988,0,0,1,.987-.987h5.921a.988.988,0,0,1,.987.987Zm0-3.766V31.407a2.945,2.945,0,0,0,.987-.588,2.944,2.944,0,0,0,.987.588V46.574a2.945,2.945,0,0,0-.987.588A2.946,2.946,0,0,0,42.435,46.574ZM52.3,50.339H44.409v-.987a.988.988,0,0,1,.987-.987h5.921a.988.988,0,0,1,.987.987v.987Z" transform="translate(0 -1.296)"/>
    </g>
  </g>
  <g id="Group_13" data-name="Group 13" transform="translate(27.632 12.036)">
    <g id="Group_12" data-name="Group 12">
      <ellipse id="Ellipse_6" data-name="Ellipse 6" class="cls-1" cx="1.974" cy="1.974" rx="1.974" ry="1.974"/>
    </g>
  </g>
</svg>
