<svg xmlns="http://www.w3.org/2000/svg" viewBox="0 0 72.627 72.259"><defs><style>.a{fill:#a8a8a8;}</style></defs><g transform="translate(0 0)"><path class="a" d="M69,66.293v-1.21a3.63,3.63,0,0,0-2.421-3.4V60.241a3.626,3.626,0,0,0-2.421-3.408v-18.6a3.625,3.625,0,0,0,2.421-3.408V32.686l2.206-4.411,3.492-3.492a1.209,1.209,0,0,0-.226-1.889L36.944,1.473a1.208,1.208,0,0,0-1.26,0L.581,22.894a1.209,1.209,0,0,0-.226,1.889l3.492,3.492,2.206,4.411v2.135a3.625,3.625,0,0,0,2.421,3.408v18.6A3.625,3.625,0,0,0,6.053,60.24v1.443a3.63,3.63,0,0,0-2.421,3.4v1.21A3.635,3.635,0,0,0,0,69.924v2.421a1.21,1.21,0,0,0,1.21,1.21H71.417a1.21,1.21,0,0,0,1.21-1.21h0V69.924A3.635,3.635,0,0,0,69,66.293ZM64.154,34.821a1.212,1.212,0,0,1-1.21,1.21H55.681a1.212,1.212,0,0,1-1.21-1.21v-1.21h9.684v1.21ZM5.022,26.027,3.154,24.159,36.314,3.924l33.16,20.235-1.868,1.868L36.949,7.161a1.209,1.209,0,0,0-1.27,0ZM41.156,18.48a4.842,4.842,0,1,1-4.842-4.842A4.842,4.842,0,0,1,41.156,18.48ZM8.011,31.19,6.8,28.769H65.827l-1.21,2.421ZM52.05,33.611v1.21a1.212,1.212,0,0,1-1.21,1.21H43.576a1.212,1.212,0,0,1-1.21-1.21v-1.21Zm-21.788,0v1.21a1.212,1.212,0,0,1-1.21,1.21H21.789a1.212,1.212,0,0,1-1.21-1.21v-1.21Zm-12.1,0v1.21a1.212,1.212,0,0,1-1.21,1.21H9.684a1.212,1.212,0,0,1-1.21-1.21v-1.21Zm0,27.84H8.474v-1.21a1.212,1.212,0,0,1,1.21-1.21h7.263a1.212,1.212,0,0,1,1.21,1.21v1.21Zm0-4.619v-18.6a3.612,3.612,0,0,0,1.21-.721,3.611,3.611,0,0,0,1.21.721v18.6a3.613,3.613,0,0,0-1.21.721A3.614,3.614,0,0,0,18.157,56.832Zm12.1,4.619H20.578v-1.21a1.212,1.212,0,0,1,1.21-1.21h7.263a1.212,1.212,0,0,1,1.21,1.21v1.21Zm9.683-1.211v1.21H32.683V60.24a3.625,3.625,0,0,0-2.421-3.408v-18.6a3.625,3.625,0,0,0,2.421-3.408v-1.21h7.263v1.21a3.625,3.625,0,0,0,2.421,3.408v18.6A3.626,3.626,0,0,0,39.945,60.24Zm12.1,1.211H42.366v-1.21a1.212,1.212,0,0,1,1.21-1.21h7.263a1.212,1.212,0,0,1,1.21,1.21Zm0-4.619v-18.6a3.612,3.612,0,0,0,1.21-.721,3.611,3.611,0,0,0,1.21.721v18.6a3.613,3.613,0,0,0-1.21.721A3.613,3.613,0,0,0,52.05,56.832Zm12.1,4.619H54.47v-1.21a1.212,1.212,0,0,1,1.21-1.21h7.263a1.212,1.212,0,0,1,1.21,1.21v1.21Z" transform="translate(0 -1.296)"/></g><g transform="translate(33.893 14.763)"><ellipse class="a" cx="2.421" cy="2.421" rx="2.421" ry="2.421"/></g></svg>