<svg xmlns="http://www.w3.org/2000/svg" xmlns:xlink="http://www.w3.org/1999/xlink" viewBox="0 0 675.067 538.281">
  <defs>
    <style>
      .cls-1, .cls-5 {
        fill: #6c63ff;
      }

      .cls-1, .cls-12, .cls-22 {
        opacity: 0.1;
      }

      .cls-2 {
        fill: url(#linear-gradient);
      }

      .cls-11, .cls-14, .cls-15, .cls-3 {
        fill: #fff;
      }

      .cls-4 {
        fill: #5a5773;
      }

      .cls-6 {
        fill: #3acc6c;
      }

      .cls-7 {
        fill: #ff748e;
      }

      .cls-8 {
        fill: #606060;
      }

      .cls-9 {
        opacity: 0.03;
      }

      .cls-10 {
        opacity: 0.25;
      }

      .cls-11 {
        opacity: 0.2;
      }

      .cls-13 {
        fill: #5e5a6b;
      }

      .cls-14 {
        opacity: 0.15;
      }

      .cls-15 {
        font-size: 12px;
        font-family: Lato-Bold, Lato;
        font-weight: 700;
      }

      .cls-16 {
        fill: url(#linear-gradient-2);
      }

      .cls-17 {
        fill: #efb7b9;
      }

      .cls-18 {
        fill: #ff6484;
      }

      .cls-19 {
        fill: #444053;
      }

      .cls-20 {
        fill: #a1616a;
      }

      .cls-21 {
        fill: #925978;
      }
    </style>
    <linearGradient id="linear-gradient" x1="0.56" y1="-4.812" x2="0.56" y2="-3.812" gradientUnits="objectBoundingBox">
      <stop offset="0" stop-color="gray" stop-opacity="0.251"/>
      <stop offset="0.54" stop-color="gray" stop-opacity="0.122"/>
      <stop offset="1" stop-color="gray" stop-opacity="0.102"/>
    </linearGradient>
    <linearGradient id="linear-gradient-2" x1="0.826" y1="-4.297" x2="0.826" y2="-3.297" xlink:href="#linear-gradient"/>
  </defs>
  <g id="Group_65" data-name="Group 65" transform="translate(0.013 0.021)">
    <path id="Path_41" data-name="Path 41" class="cls-1" d="M657,389.125c-.672.5-1.26.924-1.931,1.428a69.951,69.951,0,0,1-7.557,4.618c-13.771,7.222-30.734,10.832-47.276,13.184-37.032,5.374-74.9,6.466-112.523,7.474-101.775,2.771-203.8,5.542-305.408-.84-40.139-2.519-81.117-6.8-117.477-19.818-5.206-1.847-10.329-3.947-15.367-6.13A125.233,125.233,0,0,1,21.495,372.33c-7.641-6.214-13.771-13.352-17.466-21.413-7.641-16.878-3.611-35.856,5.122-52.4a158.544,158.544,0,0,1,12.26-19.23c6.8-9.321,14.275-18.39,21.077-27.711,24.268-33.085,40.055-74.9,17.718-108.912C53.74,132.925,44.5,124.36,39.213,114.2c-6.718-13.016-6.13-27.459-4.031-41.482.252-1.763.588-3.527.84-5.29C39.633,46.6,46.519,24.181,67.6,11.165,89.513-2.355,120.582-1.683,147.789,3.1c42.238,7.558,81.2,23.26,120.584,37.452s80.614,27.123,123.859,28.551c38.207,1.26,82.8-7.977,108.156-31.91,24.6-23.26,70.957-25.024,104.294-11,22.924,9.657,39.971,26.955,47.193,46.521a60.921,60.921,0,0,1,3.107,12.092,57.9,57.9,0,0,1,.588,11.42c-.084,1.847-.336,3.779-.588,5.626C649.441,140.4,609.3,170.8,584.866,205.225c-11.924,16.794-20.321,37.032-12.176,55.17C585.2,288.022,628.7,297.847,654.9,318.42a62.487,62.487,0,0,1,12.932,13.268C680.678,349.826,675.976,374.6,657,389.125Z" transform="translate(0 0)"/>
    <ellipse id="Ellipse_18" data-name="Ellipse 18" class="cls-1" cx="68.186" cy="8.901" rx="68.186" ry="8.901" transform="translate(145.018 520.458)"/>
    <g id="_x31_cf578eb-5ffb-4cd7-95b8-45aaaddab7e0_2_" transform="translate(47.274 75.824)">
      <path id="Path_42" data-name="Path 42" class="cls-2" d="M57.56,393.776H631.091l6.97-4.367V90.3H56.3V393.776Z" transform="translate(-56.3 -90.3)"/>
      <path id="Path_43" data-name="Path 43" class="cls-3" d="M57.784,395.5H637.11v-295H57.7v274Z" transform="translate(-56.524 -91.935)"/>
      <rect id="Rectangle_79" data-name="Rectangle 79" class="cls-4" width="579.326" height="15.367" transform="translate(1.26 0.924)"/>
    </g>
    <path id="Path_44" data-name="Path 44" class="cls-5" d="M615.727,266.7,577.1,303.9a53.268,53.268,0,0,0,75.239.672l.588-.588Z" transform="translate(-92.497 -42.749)"/>
    <g id="_x36_703b009-63cb-4af0-a0d7-9948e224c180_2_" transform="translate(56.175 80.442)">
      <circle id="Ellipse_19" data-name="Ellipse 19" class="cls-3" cx="3.947" cy="3.947" r="3.947"/>
      <circle id="Ellipse_20" data-name="Ellipse 20" class="cls-3" cx="3.947" cy="3.947" r="3.947" transform="translate(10.664)"/>
      <circle id="Ellipse_21" data-name="Ellipse 21" class="cls-3" cx="3.947" cy="3.947" r="3.947" transform="translate(21.413)"/>
    </g>
    <rect id="Rectangle_80" data-name="Rectangle 80" class="cls-5" width="95.729" height="60.124" transform="translate(196.577 125.871)"/>
    <rect id="Rectangle_81" data-name="Rectangle 81" class="cls-6" width="95.729" height="60.124" transform="translate(64.069 125.871)"/>
    <rect id="Rectangle_82" data-name="Rectangle 82" class="cls-7" width="95.729" height="60.124" transform="translate(329.086 125.871)"/>
    <rect id="Rectangle_83" data-name="Rectangle 83" class="cls-7" width="95.729" height="60.124" transform="translate(64.069 211.859)"/>
    <rect id="Rectangle_84" data-name="Rectangle 84" class="cls-8" width="95.729" height="60.124" transform="translate(196.577 211.859)"/>
    <rect id="Rectangle_85" data-name="Rectangle 85" class="cls-6" width="95.729" height="60.124" transform="translate(329.086 211.859)"/>
    <rect id="Rectangle_86" data-name="Rectangle 86" class="cls-5" width="95.729" height="60.124" transform="translate(64.069 297.847)"/>
    <rect id="Rectangle_87" data-name="Rectangle 87" class="cls-6" width="95.729" height="60.124" transform="translate(196.577 297.847)"/>
    <rect id="Rectangle_88" data-name="Rectangle 88" class="cls-8" width="95.729" height="60.124" transform="translate(329.086 297.847)"/>
    <path id="Path_45" data-name="Path 45" class="cls-5" d="M625.676,262.936,624.5,262.6l.084.84,2.6,1.008-.5-1.428Z" transform="translate(-100.094 -42.092)"/>
    <path id="Path_46" data-name="Path 46" class="cls-9" d="M625.676,262.936,624.5,262.6l.084.84,2.6,1.008-.5-1.428Z" transform="translate(-100.094 -42.092)"/>
    <path id="Path_47" data-name="Path 47" class="cls-5" d="M662.388,300.388a53.006,53.006,0,0,0,15.283-37.368v-.42H624.6Z" transform="translate(-100.11 -42.092)"/>
    <path id="Path_48" data-name="Path 48" class="cls-9" d="M662.388,300.388a53.006,53.006,0,0,0,15.283-37.368v-.42H624.6Z" transform="translate(-100.11 -42.092)"/>
    <path id="Path_49" data-name="Path 49" class="cls-5" d="M640.3,181.2v52.735h53.071A53.113,53.113,0,0,0,640.3,181.2Z" transform="translate(-102.627 -29.045)"/>
    <rect id="Rectangle_89" data-name="Rectangle 89" class="cls-5" width="0.588" height="0.672" transform="translate(467.053 216.561)"/>
    <rect id="Rectangle_90" data-name="Rectangle 90" class="cls-10" width="0.588" height="0.672" transform="translate(467.053 216.561)"/>
    <rect id="Rectangle_91" data-name="Rectangle 91" class="cls-5" width="0.588" height="0.672" transform="translate(520.375 163.911)"/>
    <rect id="Rectangle_92" data-name="Rectangle 92" class="cls-10" width="0.588" height="0.672" transform="translate(520.375 163.911)"/>
    <path id="Path_50" data-name="Path 50" class="cls-11" d="M610.223,248.635h0V195.9h-.084A53.258,53.258,0,0,0,556.9,248.635Z" transform="translate(-89.26 -31.401)"/>
    <path id="Path_51" data-name="Path 51" class="cls-5" d="M610.223,248.635h0V195.9h-.084A53.258,53.258,0,0,0,556.9,248.635Z" transform="translate(-89.26 -31.401)"/>
    <path id="Path_52" data-name="Path 52" class="cls-10" d="M610.223,248.635h0V195.9h-.084A53.258,53.258,0,0,0,556.9,248.635Z" transform="translate(-89.26 -31.401)"/>
    <path id="Path_53" data-name="Path 53" class="cls-5" d="M666.436,309.3l.756.5v.924l-1.092-.168Z" transform="translate(-106.762 -49.577)"/>
    <path id="Path_54" data-name="Path 54" class="cls-12" d="M666.436,309.3l.756.5v.924l-1.092-.168Z" transform="translate(-106.762 -49.577)"/>
    <path id="Path_55" data-name="Path 55" class="cls-5" d="M577.352,309.768l-.252.084v.924l1.008-.252-.252-.924Z" transform="translate(-92.497 -49.625)"/>
    <path id="Path_56" data-name="Path 56" class="cls-12" d="M577.352,309.768l-.252.084v.924l1.008-.252-.252-.924Z" transform="translate(-92.497 -49.625)"/>
    <path id="Path_57" data-name="Path 57" class="cls-5" d="M615.727,266.7,577.1,303.9a53.268,53.268,0,0,0,75.239.672l.588-.588Z" transform="translate(-92.497 -42.749)"/>
    <path id="Path_58" data-name="Path 58" class="cls-5" d="M615.727,265.6,577.1,302.8a53.268,53.268,0,0,0,75.239.672l.588-.588Z" transform="translate(-92.497 -42.573)"/>
    <path id="Path_59" data-name="Path 59" class="cls-6" d="M619.3,264.124l1.344-.924.168.42-1.427,1.008Z" transform="translate(-99.261 -42.188)"/>
    <path id="Path_60" data-name="Path 60" class="cls-12" d="M619.3,264.124l1.344-.924.168.42-1.427,1.008Z" transform="translate(-99.261 -42.188)"/>
    <path id="Path_61" data-name="Path 61" class="cls-7" d="M618.14,262.6l1.344-.5.168.336-2.351.84Z" transform="translate(-98.94 -42.012)"/>
    <path id="Path_62" data-name="Path 62" class="cls-12" d="M618.14,262.6l1.344-.5.168.336-2.351.84Z" transform="translate(-98.94 -42.012)"/>
    <path id="Path_63" data-name="Path 63" class="cls-13" d="M617.908,260.684l1.428-.084v.42l-2.435.252.168-.5Z" transform="translate(-98.876 -41.771)"/>
    <path id="Path_64" data-name="Path 64" class="cls-12" d="M617.908,260.684l1.428-.084v.42l-2.435.252.168-.5Z" transform="translate(-98.876 -41.771)"/>
    <path id="Path_65" data-name="Path 65" class="cls-13" d="M609.655,260.6,557.76,272.44A51.548,51.548,0,0,1,556.5,261.1v-.42h53.155Z" transform="translate(-89.196 -41.771)"/>
    <path id="Path_66" data-name="Path 66" class="cls-7" d="M558.1,273.94a54.874,54.874,0,0,0,5.374,14.359l46.437-26.2Z" transform="translate(-89.452 -42.012)"/>
    <path id="Path_67" data-name="Path 67" class="cls-6" d="M611.937,263.184,565.5,289.3h0a53.456,53.456,0,0,0,8.649,11.588L611.937,263.1h0Z" transform="translate(-90.638 -42.172)"/>
    <path id="Path_68" data-name="Path 68" class="cls-5" d="M662.388,300.388a53.006,53.006,0,0,0,15.283-37.368v-.42H624.6Z" transform="translate(-100.11 -42.092)"/>
    <path id="Path_69" data-name="Path 69" class="cls-9" d="M662.388,300.388a53.006,53.006,0,0,0,15.283-37.368v-.42H624.6Z" transform="translate(-100.11 -42.092)"/>
    <path id="Path_70" data-name="Path 70" class="cls-5" d="M615.727,266.7,577.1,303.9a53.268,53.268,0,0,0,75.239.672l.588-.588Z" transform="translate(-92.497 -42.749)"/>
    <path id="Path_71" data-name="Path 71" class="cls-5" d="M615.727,265.6,577.1,302.8a53.268,53.268,0,0,0,75.239.672l.588-.588Z" transform="translate(-92.497 -42.573)"/>
    <path id="Path_72" data-name="Path 72" class="cls-14" d="M682.988,394.088a53.006,53.006,0,0,0,15.283-37.368v-.42H645.2Z" transform="translate(-103.412 -57.11)"/>
    <text id="Age" class="cls-15" transform="translate(100.084 159.078)"><tspan x="0" y="0">Age</tspan></text>
    <text id="Ethinicity" class="cls-15" transform="translate(82.987 245.054)"><tspan x="0" y="0">Ethinicity</tspan></text>
    <g id="Group_59" data-name="Group 59" transform="translate(81.647 319.021)">
      <text id="Education" class="cls-15" transform="translate(0 12)"><tspan x="0" y="0">Education</tspan></text>
    </g>
    <g id="Group_60" data-name="Group 60" transform="translate(351.123 139.02)">
      <g id="Group">
        <text id="Election_" data-name="Election " class="cls-15" transform="translate(0 12)"><tspan x="0" y="0">Election </tspan></text>
        <text id="Type" class="cls-15" transform="translate(10.832 28.123)"><tspan x="0" y="0">Type</tspan></text>
      </g>
    </g>
    <g id="Group_61" data-name="Group 61" transform="translate(354.119 310.956)">
      <text id="Mother_Tongue" data-name="Mother
Tongue" class="cls-15" transform="translate(0 12)"><tspan x="0" y="0">Mother</tspan><tspan x="0" y="14">Tongue</tspan></text>
    </g>
    <g id="Group_62" data-name="Group 62" transform="translate(207.04 139.016)">
      <text id="Political_Engagement" data-name="Political
Engagement" class="cls-15" transform="translate(0 12)"><tspan x="0" y="0">Political</tspan><tspan x="0" y="14">Engagement</tspan></text>
    </g>
    <g id="Group_63" data-name="Group 63" transform="translate(348.006 233.054)">
      <text id="Ethinicity-2" data-name="Ethinicity" class="cls-15" transform="translate(0 12)"><tspan x="0" y="0">Ethinicity</tspan></text>
    </g>
    <g id="_x32_796dd85-6618-42ad-b8a0-d6b4cc80ab2d_2_" transform="translate(174.073 140.967)">
      <path id="Path_73" data-name="Path 73" class="cls-16" d="M308.4,303.512s-17.214-31.406-14.275-36.528a66.9,66.9,0,0,0,5.038-12.512s6.382-4.367,6.382-6.13,5.038-5.878,7.641-7.641,1.344-10.245,0-11.252-3.443-4.618-3.443-4.618,1.847-5.122,0-6.634.252-3.023,0-4.618a65.767,65.767,0,0,1,0-7.138,11.354,11.354,0,0,0-6.8-4.87l-.168-.84-1.092-4.786s5.542-10.581-3.443-16.039a9.048,9.048,0,0,0-2.015-1.008,3.8,3.8,0,0,0-.084-.672,42.307,42.307,0,0,0-1.26-8.061c-.5-1.512-1.092-2.435-1.847-2.267l-.5.252a5.782,5.782,0,0,0-.924,1.092h0a.082.082,0,0,1-.084.084h0a18.237,18.237,0,0,0-2.1,5.878,26.088,26.088,0,0,0-.588,3.695h0a13.394,13.394,0,0,0-1.008,2.267c-1.092,2.771-2.351,7.641-.084,11.252,1.931,3.023,4.618,7.222,6.466,10.329l.084.084.084.168-.168.168v.5l.168,2.6,1.511,22.253a3.8,3.8,0,0,0-1.344-.252,16.3,16.3,0,0,0-2.015-.168c-1.26-5.038-4.87-9.825-5.542-15.115a10.161,10.161,0,0,1-.084-1.6c.084-3.359.924-6.718.84-9.993a13.6,13.6,0,0,0-.084-1.847h0a1.065,1.065,0,0,0-.084-.5,15.214,15.214,0,0,0-8.145-11.42c-1.511-.756-3.191-1.26-4.7-2.1-3.443-1.931-5.626-5.458-8.817-7.809-2.351-1.763-5.794-2.771-8.4-1.847a35.759,35.759,0,0,0-4.115.84h0a36.41,36.41,0,0,0-9.321,3.863c-.42.252-.756.5-1.176.756a5.375,5.375,0,0,0-1.931,2.183,5.643,5.643,0,0,0-.252,2.351v1.763c-.168,9.825-10.748,17.382-11.588,26.871a1.849,1.849,0,0,1-.084.672v1.008h0v.84c.168,4.2,2.351,8.061,2.687,12.26,0,.336.084.756.084,1.092A18.573,18.573,0,0,1,230.728,236a14.823,14.823,0,0,0-3.779,1.512c-3.191,2.1-8.985,5.626-11.084,12.428a20,20,0,0,0-.84,5.458,116.712,116.712,0,0,1-1.763,19.482c-.252,1.6-.672,3.191-1.092,4.786a.535.535,0,0,0,0,.5l-1.26,16.543-.252,2.939-.336,4.115s.084.252.252.672c.168.588.336,1.26.5,1.931a10.535,10.535,0,0,1,.168,4.283,2.614,2.614,0,0,1-.924,1.6l-.084.084a14.668,14.668,0,0,0-1.008,4.2c-.084.84-.252,1.847-.336,2.855-.588,6.55-1.008,16.291-1.26,24.352-.252,7.977-.336,14.191-.336,14.191a14.8,14.8,0,0,0,3.275,1.6c-.084.252-.168.42-.252.672a36.03,36.03,0,0,0-2.015,8.4c-.5,6.046,1.176,12.68,9.573,16.123a9.884,9.884,0,0,0,1.679.588,5.3,5.3,0,0,0,4.2-.252c0,.336.084.672.084,1.092.084,1.511.168,2.855.168,4.031.252,7.138,2.015,19.65,2.015,19.65s.588,5.122.084,6.634,0,7.641,0,7.641,1.847,3.023,0,4.618-2.351,9.153-1.847,10.245v.084c.42,2.519-1.847,40.223-1.847,40.223s-2.183,5.794-3.863,11.756c-1.679,5.794-2.939,11.84-1.344,13.016.756.588,2.6,1.008,4.87,1.344a2.325,2.325,0,0,1-.084.756c-.252,2.687-.588,5.626-1.092,6.3-.756,1.008-1.512,9.069-1.847,13.436v.5a45.668,45.668,0,0,0-1.931,5.71s-5.878,14.7-3.863,18.474a2.625,2.625,0,0,0,.756.924h0l.168.168c2.855,2.267,9.909,2.687,12.428,2.855l-.084,3.611v.168h3.359V558.2c0-.42.084-2.6.168-5.374a10.706,10.706,0,0,1,.084-1.6c0-.42.084-.84.084-1.26a20.85,20.85,0,0,0,1.428-8.145,36.368,36.368,0,0,1,1.26-9.489,30.378,30.378,0,0,1,1.679-4.618s1.008-5.542-.42-9.4a5.406,5.406,0,0,0-1.26-2.1v-1.26a40.362,40.362,0,0,1,.756-7.809v-.084a5.349,5.349,0,0,1,.168-.588v-.168h1.092c3.359.084,5.794.084,5.794.084s2.687-13.52,2.351-19.4v-.756a77.316,77.316,0,0,1,1.6-13.772l2.1-20.741s-1.092-3.611,0-6.13c.672-1.6,2.015-4.534,2.939-6.55.42-.924.756-1.679.924-2.015l.084-.168a2,2,0,0,1-.924-.5h0c-.84-.588-1.6-1.679.924-3.359,3.947-2.519,2.687-8.9,2.687-8.9a4.664,4.664,0,0,1,.168-4.367c1.344-2.015,0-9.741,0-9.741a35.435,35.435,0,0,0,2.687-6.382c1.008-3.023,3.443-17.97,4.618-25.192.42-2.351.588-3.863.588-3.863v.756h0l.336,3.443.084.42.588,6.466s1.26,16.962.42,23.6v.084a8.623,8.623,0,0,1-.42,2.015c-1.428,3.191-1.176,15.787-1.092,18.642v.588c0,.168-1.008,2.519-.756,4.283h0a3.313,3.313,0,0,0,.5,1.26,3.99,3.99,0,0,1,.5,2.015v.084a2.589,2.589,0,0,1-.084.84,16.031,16.031,0,0,1-.924,3.443s-1.428,3.695-.84,5.71h0a1.688,1.688,0,0,0,.336.672,2.452,2.452,0,0,1,.168.756v.084c.5,4.115-.756,22.253-1.512,32.245-.336,3.947-.5,6.55-.5,6.55l-2.1,21.749.168.168c.252.168.672.5,1.26.84v.084l-.084.672c-.336,2.1-.672,4.535-1.176,6.382,0,.168-.084.252-.084.42a5.406,5.406,0,0,0-2.267.924c-4.451,7.893-2.519,14.191,0,16.039.672.5,1.176,1.931,1.512,3.695l.588,7.893v.924a2.325,2.325,0,0,0,.084.756l.168,2.351.252,3.359h2.015v-4.031h.084c3.191.084,8.4.252,10.581.084h.084c.252,0,.42-.084.588-.084.084,0,.252-.084.336-.084,1.176-.588,4.2-8.985,1.511-10.916s-3.275-7.306-3.275-7.306a18.885,18.885,0,0,1-.672-2.015v-.42a28.925,28.925,0,0,1,.336-6.97,52,52,0,0,0,.672-8.4v-.756a6.3,6.3,0,0,0,1.344-.42l.084-.084a10.1,10.1,0,0,0,2.267-1.344l7.474-33.169.756-3.863,4.535-21.917s-1.6-7.641,0-8.9c.588-.5.756-2.435.672-4.7-.084-4.031-.672-9.069-.672-9.069s2.1-3.359,3.191-5.374,0-7.39,0-7.39l2.1-12.26s2.351-14.527,8.229-26.787c4.283-8.985,1.511-33.337-1.26-46.353l-.252-1.008v-.084c1.344-.672,2.939-1.428,4.618-2.267l.672-.336c2.183-1.008,4.451-2.1,6.55-2.939l.168-.084c1.511-.672,3.023-1.176,4.534-1.679a3.922,3.922,0,0,1,1.428-.252C319.487,322.909,308.4,303.512,308.4,303.512ZM225.69,344.994h1.092a2.982,2.982,0,0,0-.336.756c-.084.168-.168.252-.252.42-.42.84-.756,1.679-1.092,2.519.084-.924.252-1.931.42-2.939C225.606,345.582,225.606,345.246,225.69,344.994Zm-3.023,15.955v-.084l-.084-.252a1.557,1.557,0,0,1-.168-.588,6.581,6.581,0,0,0,1.176-.42h.084v.168c0,.252-.084.588-.084.84h0v.084c0,.252-.084.42-.084.672-.084.42-.084.84-.168,1.26-.084-.42-.252-.756-.336-1.176a.771.771,0,0,1-.336-.5Z" transform="translate(-207.3 -167.877)"/>
      <path id="Path_74" data-name="Path 74" class="cls-17" d="M316.948,205.663l-6.634,2.351-2.435-3.947c-1.847-3.023-4.367-7.222-6.214-10.245-3.275-5.374,1.008-13.52,1.008-13.52s.756-8.145,3.611-10.664c2.771-2.519,3.527,10.664,3.527,10.664,11.168,5.122,5.206,17.046,5.206,17.046l1.092,4.786Z" transform="translate(-222.227 -168.108)"/>
      <path id="Path_75" data-name="Path 75" class="cls-12" d="M318.369,211.883l-6.634,2.351-2.435-3.947v-.336a11.425,11.425,0,0,1,8.229-1.6Z" transform="translate(-223.648 -174.327)"/>
      <path id="Path_76" data-name="Path 76" class="cls-18" d="M307.4,238.808l3.275-2.771L309,210.845s8.565-5.878,14.863,3.275a65.759,65.759,0,0,0,0,7.138c.252,1.512-1.763,3.023,0,4.618s0,6.634,0,6.634a25.82,25.82,0,0,0,3.275,4.618c1.26,1.092,2.519,9.4,0,11.168s-7.306,5.878-7.306,7.641-6.13,6.13-6.13,6.13l-5.374-7.138Z" transform="translate(-223.344 -174.466)"/>
      <path id="Path_77" data-name="Path 77" class="cls-17" d="M220.43,420.513c-12.344-5.206-9.573-18.054-7.306-24.436a39.31,39.31,0,0,1,1.6-3.779l6.886-4.2s1.428,3.611,2.939,8.4C228.156,407.75,232.186,425.552,220.43,420.513Z" transform="translate(-207.918 -203.173)"/>
      <path id="Path_78" data-name="Path 78" class="cls-17" d="M239.323,565.064a21.955,21.955,0,0,0-1.847,5.122,37.987,37.987,0,0,0-.756,8.733c.084,2.015.252,3.359.252,3.359L223.2,591.767s.084-1.092.252-2.771c.336-4.367,1.092-12.344,1.763-13.436.5-.756.84-3.611,1.008-6.3.252-2.687.336-5.038.336-5.038S243.1,558.094,239.323,565.064Z" transform="translate(-209.848 -231.002)"/>
      <path id="Path_79" data-name="Path 79" class="cls-17" d="M278.532,573.544s0,2.6-.084,5.71a51.7,51.7,0,0,1-.672,8.313,34.027,34.027,0,0,0-.336,6.97c.084,3.023.336,5.794.336,5.794s-14.023-13.268-12.6-14.359c.42-.252.756-1.428,1.092-2.939.42-1.847.84-4.283,1.092-6.382.336-2.435.588-4.451.588-4.451Z" transform="translate(-216.56 -232.68)"/>
      <path id="Path_80" data-name="Path 80" class="cls-12" d="M239.9,565.069a21.955,21.955,0,0,0-1.847,5.122c-3.779-.084-7.558-.42-11.252-.84.168-2.6.336-5.038.336-5.038S243.678,558.1,239.9,565.069Z" transform="translate(-210.425 -231.007)"/>
      <path id="Path_81" data-name="Path 81" class="cls-12" d="M278.968,573.576s0,2.6-.084,5.71c-4.367,1.092-8.9-1.092-11.084-2.435.336-2.435.588-4.451.588-4.451Z" transform="translate(-216.997 -232.712)"/>
      <path id="Path_82" data-name="Path 82" class="cls-19" d="M300.169,408.507c-5.626,12.26-7.893,26.7-7.893,26.7l-2.015,12.26s1.008,5.374,0,7.39-3.023,5.374-3.023,5.374,1.512,12.512,0,13.771,0,8.9,0,8.9l-5.122,25.7-7.138,33.085c-6.886,5.626-16.039-1.511-16.039-1.511l2.015-21.665s3.023-37.956,1.763-39.467.5-6.382.5-6.382,1.763-4.618.5-6.382.252-5.626.252-5.626-.5-15.535,1.008-19.062,0-25.612,0-25.612l-.588-6.886-.336-3.779v-.336s-.252,1.511-.588,3.863c-1.092,7.222-3.527,22.085-4.451,25.108a35.1,35.1,0,0,1-2.6,6.382s1.344,7.641,0,9.657a4.7,4.7,0,0,0-.168,4.367s1.26,6.382-2.519,8.9c-3.863,2.519,0,3.863,0,3.863s-2.771,6.13-3.779,8.649,0,6.13,0,6.13l-2.015,20.657s-1.763,8.649-1.512,14.527-2.267,19.314-2.267,19.314-19.566,0-22.589-2.267,5.038-24.688,5.038-24.688,2.267-39.215,1.763-40.223,0-8.649,1.763-10.161,0-4.618,0-4.618-.5-6.13,0-7.641-.084-6.634-.084-6.634-1.679-12.512-1.931-19.566c-.252-7.138-1.512-23.176-1.512-23.176s1.344-9.909,1.512-14.611a16.169,16.169,0,0,1,1.847-5.962,51.886,51.886,0,0,1,3.779-6.634s60.292-17.8,62.9-16.039c.672.5,1.679,3.695,2.6,8.313C301.68,375.254,304.283,399.522,300.169,408.507Z" transform="translate(-209.478 -197.716)"/>
      <circle id="Ellipse_22" data-name="Ellipse 22" class="cls-20" cx="17.55" cy="17.55" r="17.55" transform="translate(36.024 20.005)"/>
      <path id="Path_83" data-name="Path 83" class="cls-12" d="M300.677,362.306c-2.015,1.008-3.359,1.763-3.359,1.763s-28.551,13.52-36.612,12.764c-6.3-.588-22.253-.252-29.306-.084a51.882,51.882,0,0,1,3.779-6.634s60.292-17.8,62.9-16.039C298.746,354.412,299.67,357.6,300.677,362.306Z" transform="translate(-211.163 -197.7)"/>
      <path id="Path_84" data-name="Path 84" class="cls-18" d="M249.937,245.152s-16.291,2.6-20.153,5.122-11.42,7.39-11.42,17.8-1.763,21.161-2.771,24.184,16.039,27.711,16.039,27.711l-6.13,37.452s24.436-.756,32.581,0,36.612-12.764,36.612-12.764,16.794-8.9,20.405-9.153c3.527-.252-7.138-19.566-7.138-19.566s-16.543-31.322-13.687-36.36a74.492,74.492,0,0,0,4.87-12.512l-3.023-25.947s-4.618-1.512-8.4,1.26c-3.863,2.771-16.794,1.26-16.794,1.26Z" transform="translate(-208.622 -179.55)"/>
      <path id="Path_85" data-name="Path 85" class="cls-12" d="M221.516,297.586l-6.382,1.763-1.763,23.932s2.267,6.382,0,8.4-2.771,45.6-2.771,45.6,7.39,5.374,16.039,1.26c0,0-1.26-4.87,2.519-22.421,3.863-17.55,3.779-26.451,3.779-26.451s0-21.917,1.763-25.444,0-12.512,0-12.512-3.527-4.87-3.275-6.634C231.677,283.394,221.516,297.586,221.516,297.586Z" transform="translate(-207.829 -186.638)"/>
      <path id="Path_86" data-name="Path 86" class="cls-12" d="M225,396.5a16.454,16.454,0,0,1-11.5-.42,39.31,39.31,0,0,1,1.6-3.779l6.886-4.2A50.542,50.542,0,0,1,225,396.5Z" transform="translate(-208.294 -203.173)"/>
      <path id="Path_87" data-name="Path 87" class="cls-18" d="M221.016,297.583l-6.382,1.763-1.763,23.932s2.267,6.382,0,8.4-2.771,45.6-2.771,45.6,7.39,5.374,16.039,1.26c0,0-1.26-4.87,2.519-22.421s3.863-26.451,3.863-26.451,0-21.917,1.763-25.444,0-12.512,0-12.512-3.527-4.87-3.275-6.634S221.016,297.583,221.016,297.583Z" transform="translate(-207.749 -186.636)"/>
      <path id="Path_88" data-name="Path 88" class="cls-12" d="M298.316,304.6s-3.275,28.551-13.016,33.841C285.3,338.441,306.965,332.311,298.316,304.6Z" transform="translate(-219.801 -189.79)"/>
      <path id="Path_89" data-name="Path 89" class="cls-12" d="M242.9,307.6s11.924,5.878,9.153,9.909S242.9,307.6,242.9,307.6Z" transform="translate(-213.006 -190.271)"/>
      <path id="Path_90" data-name="Path 90" class="cls-12" d="M242.9,321.5s7.641,7.893,6.13,10.665C247.435,335.02,242.9,321.5,242.9,321.5Z" transform="translate(-213.006 -192.499)"/>
      <path id="Path_91" data-name="Path 91" class="cls-12" d="M316.2,243.6s3.023,5.122,3.275,8.4C319.811,255.356,316.2,243.6,316.2,243.6Z" transform="translate(-224.754 -180.013)"/>
      <path id="Path_92" data-name="Path 92" class="cls-12" d="M316.2,235.293s1.512-1.26,5.374,0C325.437,236.637,316.2,235.293,316.2,235.293Z" transform="translate(-224.754 -178.592)"/>
      <path id="Path_93" data-name="Path 93" class="cls-12" d="M294.469,411.674a35.4,35.4,0,0,1-18.642-2.351l-3.191,8.229-.336-3.779c.5-3.191,1.512-6.634,3.527-7.474A32.613,32.613,0,0,0,294.469,411.674Z" transform="translate(-217.718 -206.09)"/>
      <path id="Path_94" data-name="Path 94" class="cls-12" d="M236.5,425.4s15.7,3.275,20.069,2.687Z" transform="translate(-211.98 -209.151)"/>
      <path id="Path_95" data-name="Path 95" class="cls-12" d="M238.5,430.3s6.718-.252,9.993,1.092Z" transform="translate(-212.301 -209.933)"/>
      <path id="Path_96" data-name="Path 96" class="cls-12" d="M239.4,433.6a56.835,56.835,0,0,0,9.237,1.26Z" transform="translate(-212.445 -210.466)"/>
      <path id="Path_97" data-name="Path 97" class="cls-12" d="M238.9,474.944c.252-.168,13.352-3.275,15.031-1.092Z" transform="translate(-212.365 -216.793)"/>
      <path id="Path_98" data-name="Path 98" class="cls-12" d="M238.9,479.986s11.336-1.344,11.672,0C250.824,481.33,238.9,479.986,238.9,479.986Z" transform="translate(-212.365 -217.805)"/>
      <path id="Path_99" data-name="Path 99" class="cls-12" d="M238.9,484.014s12.092-2.519,13.52-1.931C253.931,482.755,238.9,484.014,238.9,484.014Z" transform="translate(-212.365 -218.222)"/>
      <path id="Path_100" data-name="Path 100" class="cls-12" d="M236.971,585.32,223.2,594.809s.084-1.092.252-2.771a35.8,35.8,0,0,1,7.054-11.5c3.107-.84,5.038-.084,6.3,1.428A29.934,29.934,0,0,0,236.971,585.32Z" transform="translate(-209.848 -233.96)"/>
      <path id="Path_101" data-name="Path 101" class="cls-19" d="M237.18,593.869a33.817,33.817,0,0,0-2.855,14.023,21.584,21.584,0,0,1-2.939,11.336,5.124,5.124,0,0,1-1.008,1.344s-9.573-.084-12.932-2.855a5.783,5.783,0,0,1-.924-1.092c-1.931-3.779,3.695-18.39,3.695-18.39,2.939-11.252,8.985-17.3,8.985-17.3C240.035,578.166,237.18,593.869,237.18,593.869Z" transform="translate(-208.713 -234.028)"/>
      <path id="Path_102" data-name="Path 102" class="cls-12" d="M231.639,622.6a5.123,5.123,0,0,1-1.008,1.344s-9.573-.084-12.932-2.855c1.679-5.458,6.886-21.917,9.321-19.146C229.456,604.628,231.052,617.307,231.639,622.6Z" transform="translate(-208.967 -237.397)"/>
      <path id="Path_103" data-name="Path 103" class="cls-19" d="M232.672,603.044,232,627.732h3.191s.5-21.665,1.931-24.688S232.672,603.044,232.672,603.044Z" transform="translate(-211.259 -237.408)"/>
      <path id="Path_104" data-name="Path 104" class="cls-12" d="M277.776,602.38s-14.023-13.268-12.6-14.359c.42-.252.756-1.428,1.092-2.939,2.687-.5,7.306.672,11.168,11.42C277.524,599.609,277.776,602.38,277.776,602.38Z" transform="translate(-216.56 -234.729)"/>
      <path id="Path_105" data-name="Path 105" class="cls-19" d="M279.186,617.242a.505.505,0,0,1-.336.084c-1.679.252-7.725.084-11.168,0a2.478,2.478,0,0,1-2.351-2.435c0-.924,0-2.015-.084-3.191-.168-3.779-.588-8.229-1.931-9.237-2.351-1.847-4.283-8.061,0-15.955,0,0,8.229-6.3,14.107,12.6,0,0,.588,5.374,3.191,7.306S280.362,616.738,279.186,617.242Z" transform="translate(-215.871 -234.812)"/>
      <path id="Path_106" data-name="Path 106" class="cls-12" d="M279.7,620.451c-1.679.252-7.725.084-11.168,0a2.478,2.478,0,0,1-2.351-2.435c0-.924,0-2.015-.084-3.191,1.008-4.535,2.519-9.237,4.451-10.329C270.551,604.412,276.345,603.824,279.7,620.451Z" transform="translate(-216.724 -237.853)"/>
      <path id="Path_107" data-name="Path 107" class="cls-19" d="M265.1,603.463l1.512,20.489h1.931V601.7Z" transform="translate(-216.564 -237.408)"/>
      <path id="Path_108" data-name="Path 108" class="cls-12" d="M264.149,179.29a34.967,34.967,0,0,0-15.7,5.038,6.626,6.626,0,0,0-2.939,2.939,10.845,10.845,0,0,0-.252,3.695c.168,10.5-11.588,18.474-11.168,29.054.168,4.2,2.267,8.061,2.6,12.26.672,6.97-3.443,13.352-7.39,19.062a15.935,15.935,0,0,0,11.168-3.695,85.415,85.415,0,0,1,1.6,42.658h5.626a5.714,5.714,0,0,1,1.679.168,5.123,5.123,0,0,1,1.344,1.008c5.29,5.206,8.817,13.016,6.8,20.153l12.008-4.535a37.733,37.733,0,0,0,8.313-3.947,11.8,11.8,0,0,0,5.122-7.39c.336-1.847.252-4.031,1.763-5.122a7.876,7.876,0,0,1,2.351-.84c3.275-1.176,4.786-4.954,5.458-8.4a46.462,46.462,0,0,0,.756-12.764c-.5-7.138-2.687-14.443-.924-21.413,1.008-3.947,3.191-7.558,3.359-11.588.252-6.634-4.954-12.428-5.71-19.062-.5-4.618,1.092-9.321.588-13.939a14.722,14.722,0,0,0-7.893-11.336c-1.512-.756-3.023-1.26-4.535-2.1-3.359-1.931-5.458-5.374-8.481-7.809-3.023-2.351-8.061-3.275-10.329-.168Z" transform="translate(-210.826 -169.698)"/>
      <path id="Path_109" data-name="Path 109" class="cls-21" d="M264.149,178.39a34.967,34.967,0,0,0-15.7,5.038,6.626,6.626,0,0,0-2.939,2.939,10.845,10.845,0,0,0-.252,3.695c.168,10.5-11.588,18.474-11.168,29.054.168,4.2,2.267,8.061,2.6,12.26.672,6.97-3.443,13.352-7.39,19.062a15.935,15.935,0,0,0,11.168-3.695,85.414,85.414,0,0,1,1.6,42.658h5.626a5.713,5.713,0,0,1,1.679.168,5.122,5.122,0,0,1,1.344,1.008c5.29,5.206,8.817,13.016,6.8,20.153l12.008-4.534a37.733,37.733,0,0,0,8.313-3.947,11.8,11.8,0,0,0,5.122-7.39c.336-1.847.252-4.031,1.763-5.122a7.877,7.877,0,0,1,2.351-.84c3.275-1.176,4.786-4.954,5.458-8.4a46.462,46.462,0,0,0,.756-12.764c-.5-7.138-2.687-14.443-.924-21.413,1.008-3.947,3.191-7.558,3.359-11.588.252-6.634-4.954-12.428-5.71-19.062-.5-4.618,1.092-9.321.588-13.939a14.722,14.722,0,0,0-7.893-11.336c-1.512-.756-3.023-1.26-4.535-2.1-3.359-1.931-5.458-5.374-8.481-7.809-3.023-2.351-8.061-3.275-10.329-.168Z" transform="translate(-210.826 -169.553)"/>
      <g id="Group_64" data-name="Group 64" class="cls-22" transform="translate(18.474 17.906)">
        <path id="Path_110" data-name="Path 110" d="M248.3,189.2v0Z" transform="translate(-232.345 -189.2)"/>
        <path id="Path_111" data-name="Path 111" d="M301.19,216.541c.252-3.275.924-6.466.672-9.741C301.694,210.075,300.938,213.35,301.19,216.541Z" transform="translate(-240.814 -192.021)"/>
        <path id="Path_112" data-name="Path 112" d="M237.6,235.484c-.336-3.779-2.1-7.306-2.519-11.084a17.553,17.553,0,0,0-.084,2.1c.168,4.115,2.183,7.977,2.6,12.092A19.187,19.187,0,0,0,237.6,235.484Z" transform="translate(-230.214 -194.842)"/>
        <path id="Path_113" data-name="Path 113" d="M303.976,253.465a25.561,25.561,0,0,0-.588,7.557,26.943,26.943,0,0,1,.588-4.451c1.008-3.947,3.191-7.558,3.359-11.588a18.977,18.977,0,0,0-.084-2.183C306.747,246.579,304.9,249.938,303.976,253.465Z" transform="translate(-241.165 -197.791)"/>
        <path id="Path_114" data-name="Path 114" d="M240.384,255.9a16.136,16.136,0,0,1-8.985,3.695c-.672,1.092-1.428,2.183-2.1,3.191a15.935,15.935,0,0,0,11.168-3.695A81.593,81.593,0,0,1,244,282.015,83.535,83.535,0,0,0,240.384,255.9Z" transform="translate(-229.3 -199.89)"/>
        <path id="Path_115" data-name="Path 115" d="M297.616,294.709c-.672,3.443-2.1,7.222-5.458,8.4a11.18,11.18,0,0,0-2.351.84c-1.512,1.092-1.428,3.275-1.763,5.122a11.413,11.413,0,0,1-5.122,7.306,36.018,36.018,0,0,1-8.313,3.947l-11.42,4.283a14.806,14.806,0,0,1-.588,3.359l12.008-4.535a37.734,37.734,0,0,0,8.313-3.947,11.8,11.8,0,0,0,5.122-7.39c.336-1.847.252-4.031,1.763-5.122a7.876,7.876,0,0,1,2.351-.84c3.275-1.176,4.786-4.954,5.458-8.4a46.8,46.8,0,0,0,.84-10.832A58.484,58.484,0,0,1,297.616,294.709Z" transform="translate(-234.637 -204.859)"/>
        <path id="Path_116" data-name="Path 116" d="M252.965,307.869a4.042,4.042,0,0,0-1.344-1.008,3.713,3.713,0,0,0-1.679-.168h-4.954c-.168,1.092-.42,2.1-.588,3.191h5.626a5.714,5.714,0,0,1,1.679.168,5.123,5.123,0,0,1,1.344,1.008c3.863,3.863,6.8,8.985,7.306,14.359C260.943,319.038,257.668,312.488,252.965,307.869Z" transform="translate(-231.72 -208.026)"/>
      </g>
      <path id="Path_117" data-name="Path 117" class="cls-12" d="M221.4,332.736s4.535-1.931,5.542,0S221.4,332.736,221.4,332.736Z" transform="translate(-209.56 -194.162)"/>
      <path id="Path_118" data-name="Path 118" class="cls-12" d="M223.3,336.636s4.535-1.931,5.542,0S223.3,336.636,223.3,336.636Z" transform="translate(-209.864 -194.787)"/>
    </g>
  </g>
</svg>
