<svg xmlns="http://www.w3.org/2000/svg" viewBox="0 0 87 83.52"><defs><style>.a{opacity:0.6;}.b{fill:#707070;}</style></defs><g class="a"><g transform="translate(0 0)"><path class="b" d="M121.211,400h3.814a.9.9,0,0,0,.953-.953v-3.814a.9.9,0,0,0-.953-.953h-3.814a.9.9,0,0,0-.953.953v3.814A.9.9,0,0,0,121.211,400Z" transform="translate(-101.523 -334.597)"/><path class="b" d="M121.211,447.738h3.814a.9.9,0,0,0,.953-.953V442.97a.9.9,0,0,0-.953-.953h-3.814a.9.9,0,0,0-.953.953v3.814A.9.9,0,0,0,121.211,447.738Z" transform="translate(-101.523 -374.896)"/><path class="b" d="M171.4,400h3.814a.9.9,0,0,0,.953-.953v-3.814a.9.9,0,0,0-.953-.953H171.4a.9.9,0,0,0-.953.953v3.814A.9.9,0,0,0,171.4,400Z" transform="translate(-143.889 -334.597)"/><path class="b" d="M171.4,447.738h3.814a.9.9,0,0,0,.953-.953V442.97a.9.9,0,0,0-.953-.953H171.4a.9.9,0,0,0-.953.953v3.814A.9.9,0,0,0,171.4,447.738Z" transform="translate(-143.889 -374.896)"/><path class="b" d="M352.548,400h3.814a.9.9,0,0,0,.953-.953v-3.814a.9.9,0,0,0-.953-.953h-3.814a.9.9,0,0,0-.954.953v3.814A.9.9,0,0,0,352.548,400Z" transform="translate(-296.82 -334.597)"/><path class="b" d="M352.548,447.738h3.814a.9.9,0,0,0,.953-.953V442.97a.9.9,0,0,0-.953-.953h-3.814a.9.9,0,0,0-.954.953v3.814A.9.9,0,0,0,352.548,447.738Z" transform="translate(-296.82 -374.896)"/><path class="b" d="M402.731,400h3.814a.9.9,0,0,0,.953-.953v-3.814a.9.9,0,0,0-.953-.953h-3.814a.9.9,0,0,0-.953.953v3.814A.9.9,0,0,0,402.731,400Z" transform="translate(-339.186 -334.597)"/><path class="b" d="M402.731,447.738h3.814a.9.9,0,0,0,.953-.953V442.97a.9.9,0,0,0-.953-.953h-3.814a.9.9,0,0,0-.953.953v3.814A.9.9,0,0,0,402.731,447.738Z" transform="translate(-339.186 -374.896)"/><path class="b" d="M86.428,60.175,78.419,46.446A2.976,2.976,0,0,0,75.94,44.92H56.681V35.577A2.976,2.976,0,0,0,55.156,33.1l-8.772-5.148V24.517h9.344a2.933,2.933,0,0,0,2.86-2.86v-6.1a2.933,2.933,0,0,0-2.86-2.86H46a2.748,2.748,0,0,0-2.479-1.525,2.933,2.933,0,0,0-2.86,2.86V28.14l-8.772,5.148a2.976,2.976,0,0,0-1.525,2.479v9.344H11.107a2.976,2.976,0,0,0-2.479,1.525L.429,60.747a2.6,2.6,0,0,0,0,2.86,2.976,2.976,0,0,0,2.479,1.525H8.819v26.7a2.933,2.933,0,0,0,2.86,2.86H75.368a2.933,2.933,0,0,0,2.86-2.86v-26.7H84.14A2.933,2.933,0,0,0,87,62.273,3.066,3.066,0,0,0,86.428,60.175ZM36.087,37.293l7.437-4.2,7.437,4.2V44.73H36.087V37.293ZM72.508,88.778H51.533V77.527a7.853,7.853,0,0,0-7.818-7.818A7.981,7.981,0,0,0,35.9,77.527v11.25H14.921V64.752H72.889C72.508,64.752,72.508,88.778,72.508,88.778Zm2.86-29.747H7.866l4.767-8.39H74.225l4.767,8.39Z" transform="translate(0 -11.169)"/></g></g></svg>