<svg id="elementary-school" xmlns="http://www.w3.org/2000/svg" viewBox="0 0 70.93 68.093">
  <defs>
    <style>
      .cls-1 {
        fill: #fff;
      }
    </style>
  </defs>
  <g id="Group_18" data-name="Group 18" transform="translate(0 0)">
    <path id="Path_8" data-name="Path 8" class="cls-1" d="M121.035,398.946h3.109a.734.734,0,0,0,.777-.777v-3.109a.734.734,0,0,0-.777-.777h-3.109a.734.734,0,0,0-.777.777v3.109A.734.734,0,0,0,121.035,398.946Z" transform="translate(-104.984 -345.622)"/>
    <path id="Path_9" data-name="Path 9" class="cls-1" d="M121.035,446.681h3.109a.734.734,0,0,0,.777-.777v-3.109a.734.734,0,0,0-.777-.777h-3.109a.734.734,0,0,0-.777.777V445.9A.734.734,0,0,0,121.035,446.681Z" transform="translate(-104.984 -387.294)"/>
    <path id="Path_10" data-name="Path 10" class="cls-1" d="M171.219,398.946h3.109a.734.734,0,0,0,.777-.777v-3.109a.734.734,0,0,0-.777-.777h-3.109a.734.734,0,0,0-.777.777v3.109A.734.734,0,0,0,171.219,398.946Z" transform="translate(-148.794 -345.622)"/>
    <path id="Path_11" data-name="Path 11" class="cls-1" d="M171.219,446.681h3.109a.734.734,0,0,0,.777-.777v-3.109a.734.734,0,0,0-.777-.777h-3.109a.734.734,0,0,0-.777.777V445.9A.734.734,0,0,0,171.219,446.681Z" transform="translate(-148.794 -387.294)"/>
    <path id="Path_12" data-name="Path 12" class="cls-1" d="M352.371,398.946h3.109a.734.734,0,0,0,.777-.777v-3.109a.734.734,0,0,0-.777-.777h-3.109a.734.734,0,0,0-.777.777v3.109A.734.734,0,0,0,352.371,398.946Z" transform="translate(-306.937 -345.622)"/>
    <path id="Path_13" data-name="Path 13" class="cls-1" d="M352.371,446.681h3.109a.734.734,0,0,0,.777-.777v-3.109a.734.734,0,0,0-.777-.777h-3.109a.734.734,0,0,0-.777.777V445.9A.734.734,0,0,0,352.371,446.681Z" transform="translate(-306.937 -387.294)"/>
    <path id="Path_14" data-name="Path 14" class="cls-1" d="M402.555,398.946h3.109a.734.734,0,0,0,.777-.777v-3.109a.734.734,0,0,0-.777-.777h-3.109a.734.734,0,0,0-.777.777v3.109A.734.734,0,0,0,402.555,398.946Z" transform="translate(-350.747 -345.622)"/>
    <path id="Path_15" data-name="Path 15" class="cls-1" d="M402.555,446.681h3.109a.734.734,0,0,0,.777-.777v-3.109a.734.734,0,0,0-.777-.777h-3.109a.734.734,0,0,0-.777.777V445.9A.734.734,0,0,0,402.555,446.681Z" transform="translate(-350.747 -387.294)"/>
    <path id="Path_16" data-name="Path 16" class="cls-1" d="M70.464,51.123,63.934,39.93a2.426,2.426,0,0,0-2.021-1.244h-15.7V31.068a2.426,2.426,0,0,0-1.244-2.021l-7.151-4.2v-2.8h7.618a2.391,2.391,0,0,0,2.332-2.332V14.745a2.391,2.391,0,0,0-2.332-2.332H37.505a2.241,2.241,0,0,0-2.021-1.244A2.391,2.391,0,0,0,33.153,13.5v11.5L26,29.2a2.426,2.426,0,0,0-1.244,2.021v7.618H9.056a2.426,2.426,0,0,0-2.021,1.244L.35,51.589a2.118,2.118,0,0,0,0,2.332,2.426,2.426,0,0,0,2.021,1.244H7.19V76.93a2.391,2.391,0,0,0,2.332,2.332H61.447a2.391,2.391,0,0,0,2.332-2.332V55.165H68.6a2.391,2.391,0,0,0,2.332-2.332A2.5,2.5,0,0,0,70.464,51.123ZM29.421,32.467l6.063-3.42,6.063,3.42v6.063H29.421V32.467ZM59.115,74.442h-17.1V65.27A6.4,6.4,0,0,0,35.64,58.9a6.507,6.507,0,0,0-6.374,6.374v9.172h-17.1V54.854H59.426C59.115,54.854,59.115,74.442,59.115,74.442ZM61.447,50.19H6.413L10.3,43.35H60.514L64.4,50.19Z" transform="translate(0 -11.169)"/>
  </g>
</svg>
