<svg xmlns="http://www.w3.org/2000/svg" viewBox="0 0 87.01 87.01"><defs><style>.a{opacity:0.6;}.b{fill:#707070;}</style></defs><g class="a"><path class="b" d="M87.01,53.305v-5.1H73.245V38.067H69.367A26.19,26.19,0,0,0,51.492,16.829V6.514H46.054V0h-5.1V6.514H35.518V16.829A26.19,26.19,0,0,0,17.644,38.067H13.765v10.14H0v5.1H4.121V81.912H0v5.1H87.01v-5.1H82.889V53.305ZM40.616,11.613h5.778v4.126a26.066,26.066,0,0,0-5.778,0Zm2.889,9.064a21.05,21.05,0,0,1,20.7,17.391h-10.9V32.629h-5.1v5.438H38.8V32.629h-5.1v5.438H22.8A21.05,21.05,0,0,1,43.505,20.676ZM18.864,43.165H68.147v5.042H18.864ZM52.413,81.912H34.6V67.093l8.908-4.427,8.908,4.427V81.912Zm25.378,0H57.511V63.933l-14.006-6.96L29.5,63.933V81.912H9.219V53.305H77.791Z"/><g transform="translate(15.579 57.724)"><rect class="b" width="5.098" height="7.251"/></g><g transform="translate(15.579 70.242)"><rect class="b" width="5.098" height="7.251"/></g><g transform="translate(66.333 70.242)"><rect class="b" width="5.098" height="7.251"/></g><g transform="translate(66.333 57.724)"><rect class="b" width="5.098" height="7.251"/></g></g></svg>