<svg xmlns="http://www.w3.org/2000/svg" viewBox="0 0 24 24">
  <defs>
    <style>
      .cls-1 {
        opacity: 0.669;
      }

      .cls-2 {
        fill: none;
      }

      .cls-3 {
        fill: #fff;
      }
    </style>
  </defs>
  <g id="baseline-grid_on-24px" class="cls-1">
    <path id="Path_24" data-name="Path 24" class="cls-2" d="M0,0H24V24H0Z"/>
    <path id="Path_25" data-name="Path 25" class="cls-3" d="M20,2H4A2.006,2.006,0,0,0,2,4V20a2.006,2.006,0,0,0,2,2H20a2.006,2.006,0,0,0,2-2V4A2.006,2.006,0,0,0,20,2ZM8,20H4V16H8Zm0-6H4V10H8ZM8,8H4V4H8Zm6,12H10V16h4Zm0-6H10V10h4Zm0-6H10V4h4Zm6,12H16V16h4Zm0-6H16V10h4Zm0-6H16V4h4Z"/>
  </g>
</svg>
