<svg xmlns="http://www.w3.org/2000/svg" xmlns:xlink="http://www.w3.org/1999/xlink" viewBox="0 0 226.141 212.802">
  <defs>
    <style>
      .cls-1 {
        fill: url(#linear-gradient);
      }

      .cls-2, .cls-24 {
        fill: #6c63ff;
      }

      .cls-10, .cls-11, .cls-12, .cls-13, .cls-3, .cls-30, .cls-4, .cls-5, .cls-6, .cls-9 {
        fill: none;
      }

      .cls-12, .cls-3, .cls-9 {
        stroke: #707070;
      }

      .cls-11, .cls-3, .cls-30, .cls-4 {
        stroke-miterlimit: 10;
      }

      .cls-3, .cls-4, .cls-5, .cls-6 {
        stroke-width: 5px;
      }

      .cls-10, .cls-11, .cls-4, .cls-5, .cls-6 {
        stroke: #6c63ff;
      }

      .cls-10, .cls-12, .cls-13, .cls-5, .cls-6, .cls-9 {
        stroke-linejoin: round;
      }

      .cls-12, .cls-13, .cls-6 {
        stroke-linecap: round;
      }

      .cls-7 {
        fill: #64ffda;
      }

      .cls-8 {
        fill: url(#linear-gradient-3);
      }

      .cls-10, .cls-11, .cls-12, .cls-13, .cls-9 {
        stroke-width: 3px;
      }

      .cls-13 {
        stroke: #64ffda;
      }

      .cls-14 {
        fill: url(#linear-gradient-4);
      }

      .cls-15 {
        fill: #ff9800;
      }

      .cls-16 {
        fill: #00897b;
      }

      .cls-17 {
        fill: url(#linear-gradient-7);
      }

      .cls-18 {
        fill: #795548;
      }

      .cls-19 {
        fill: url(#linear-gradient-8);
      }

      .cls-20 {
        fill: #009688;
      }

      .cls-21 {
        fill: url(#linear-gradient-9);
      }

      .cls-22 {
        fill: url(#linear-gradient-10);
      }

      .cls-23 {
        fill: #fff;
      }

      .cls-24, .cls-25 {
        opacity: 0.2;
      }

      .cls-26 {
        fill: #263238;
      }

      .cls-27 {
        fill: url(#linear-gradient-18);
      }

      .cls-28 {
        fill: url(#linear-gradient-20);
      }

      .cls-29 {
        fill: url(#linear-gradient-21);
      }

      .cls-30 {
        stroke: #37474f;
      }

      .cls-31 {
        fill: #f5f5f5;
      }

      .cls-32 {
        fill: url(#linear-gradient-23);
      }

      .cls-33 {
        fill: #e6e6e6;
      }

      .cls-34 {
        fill: url(#linear-gradient-26);
      }

      .cls-35 {
        fill: url(#linear-gradient-27);
      }

      .cls-36 {
        fill: url(#linear-gradient-28);
      }

      .cls-37 {
        fill: url(#linear-gradient-29);
      }

      .cls-38 {
        fill: url(#linear-gradient-30);
      }
    </style>
    <linearGradient id="linear-gradient" x1="0.5" y1="1" x2="0.5" gradientUnits="objectBoundingBox">
      <stop offset="0" stop-color="gray" stop-opacity="0.251"/>
      <stop offset="0.54" stop-color="gray" stop-opacity="0.122"/>
      <stop offset="1" stop-color="gray" stop-opacity="0.102"/>
    </linearGradient>
    <linearGradient id="linear-gradient-3" x1="0.5" x2="0.5" y2="0.001" xlink:href="#linear-gradient"/>
    <linearGradient id="linear-gradient-4" x1="0" y1="0.5" x2="1" y2="0.5" xlink:href="#linear-gradient"/>
    <linearGradient id="linear-gradient-7" x1="0.5" x2="0.5" xlink:href="#linear-gradient"/>
    <linearGradient id="linear-gradient-8" x1="0.5" x2="0.5" xlink:href="#linear-gradient"/>
    <linearGradient id="linear-gradient-9" x1="0.5" x2="0.5" xlink:href="#linear-gradient"/>
    <linearGradient id="linear-gradient-10" x1="0.5" x2="0.5" xlink:href="#linear-gradient"/>
    <linearGradient id="linear-gradient-18" x1="0.5" x2="0.5" xlink:href="#linear-gradient"/>
    <linearGradient id="linear-gradient-20" x1="0.5" x2="0.5" xlink:href="#linear-gradient"/>
    <linearGradient id="linear-gradient-21" x1="0.499" x2="0.499" xlink:href="#linear-gradient"/>
    <linearGradient id="linear-gradient-23" x1="0.5" x2="0.5" xlink:href="#linear-gradient"/>
    <linearGradient id="linear-gradient-26" x1="0" y1="0.5" x2="1" y2="0.5" xlink:href="#linear-gradient"/>
    <linearGradient id="linear-gradient-27" x1="-2.361" x2="-2.361" xlink:href="#linear-gradient"/>
    <linearGradient id="linear-gradient-28" x1="-37.824" y1="1.321" x2="-37.824" y2="0.321" xlink:href="#linear-gradient"/>
    <linearGradient id="linear-gradient-29" x1="-1.667" x2="-1.667" xlink:href="#linear-gradient"/>
    <linearGradient id="linear-gradient-30" x1="-18.361" y1="1.383" x2="-18.361" y2="0.383" xlink:href="#linear-gradient"/>
  </defs>
  <g id="Group_87" data-name="Group 87" transform="translate(-1395.5 -2068.552)">
    <g id="undraw_social_growth_d0y3" transform="translate(1398 2068.552)">
      <path id="Path_243" data-name="Path 243" class="cls-1" d="M124.951,39.852V18.314h-6.864L115.98,6.106h2.865V0h-15.6V6.106h2.865L104,18.314H97.14V40.362h.168v8.65h43.245v-9.16Z" transform="translate(-68.204)"/>
      <path id="Path_244" data-name="Path 244" class="cls-2" d="M134.549,32.281H119.76l3.216-18.651h8.359Z" transform="translate(-83.908 -9.463)"/>
      <rect id="Rectangle_243" data-name="Rectangle 243" class="cls-1" width="51.366" height="26.319" transform="translate(24.931 186.484)"/>
      <rect id="Rectangle_244" data-name="Rectangle 244" class="cls-2" width="46.303" height="23.151" transform="translate(27.493 186.484)"/>
      <rect id="Rectangle_245" data-name="Rectangle 245" class="cls-3" width="32.41" height="138.747" transform="translate(34.562 47.737)"/>
      <rect id="Rectangle_246" data-name="Rectangle 246" class="cls-4" width="29.26" height="138.747" transform="translate(36.173 47.737)"/>
      <path id="Path_245" data-name="Path 245" class="cls-5" d="M150.07,254.273H120.81l29.1-23.473" transform="translate(-84.637 -160.233)"/>
      <path id="Path_246" data-name="Path 246" class="cls-5" d="M120.81,330.88h29.26l-29.1-23.31" transform="translate(-84.637 -213.53)"/>
      <path id="Path_247" data-name="Path 247" class="cls-5" d="M150.07,406.763H120.81l29.1-23.473" transform="translate(-84.637 -266.099)"/>
      <path id="Path_248" data-name="Path 248" class="cls-5" d="M120.442,483.37H149.7L120.28,460.06" transform="translate(-84.269 -319.396)"/>
      <path id="Path_249" data-name="Path 249" class="cls-6" d="M120.972,156.13l29.1,22.989H120.81" transform="translate(-84.637 -108.393)"/>
      <line id="Line_11" data-name="Line 11" class="cls-4" y1="22.506" x2="28.939" transform="translate(36.335 163.815)"/>
      <rect id="Rectangle_247" data-name="Rectangle 247" class="cls-2" width="40.998" height="8.68" transform="translate(30.227 39.057)"/>
      <rect id="Rectangle_248" data-name="Rectangle 248" class="cls-2" width="26.368" height="20.901" transform="translate(30.064 18.639)"/>
      <rect id="Rectangle_249" data-name="Rectangle 249" class="cls-7" width="9.004" height="8.359" transform="translate(47.428 18.639)"/>
      <rect id="Rectangle_250" data-name="Rectangle 250" class="cls-4" width="29.581" height="13.184" transform="translate(0 33.59)"/>
      <rect id="Rectangle_251" data-name="Rectangle 251" class="cls-4" width="118.65" height="13.184" transform="translate(71.384 33.59)"/>
      <path id="Path_250" data-name="Path 250" class="cls-5" d="M50.88,109.86v13.181L65.669,109.86" transform="translate(-36.088 -76.27)"/>
      <path id="Path_251" data-name="Path 251" class="cls-5" d="M403.348,123.041V109.86L391.61,123.041" transform="translate(-272.639 -76.27)"/>
      <path id="Path_252" data-name="Path 252" class="cls-5" d="M361.674,110.38v12.863l-13.184-12.7" transform="translate(-242.703 -76.631)"/>
      <path id="Path_253" data-name="Path 253" class="cls-5" d="M317.666,123.365V109.86L304.32,123.041" transform="translate(-212.038 -76.27)"/>
      <path id="Path_254" data-name="Path 254" class="cls-5" d="M260.68,124.783V111.6l13.343,12.38V111.44" transform="translate(-181.741 -77.367)"/>
      <path id="Path_255" data-name="Path 255" class="cls-5" d="M445.954,110.019v12.863L430.52,109.86" transform="translate(-299.653 -76.27)"/>
      <path id="Path_256" data-name="Path 256" class="cls-5" d="M496.6,124.094V110.91L481,123.77" transform="translate(-334.698 -76.999)"/>
      <path id="Path_257" data-name="Path 257" class="cls-5" d="M547.964,111.072v12.539l-15.434-12.7" transform="translate(-370.473 -76.999)"/>
      <path id="Path_258" data-name="Path 258" class="cls-8" d="M693.908,260.194c4.644,0,8.408-2.244,8.408-5.014H685.5C685.5,257.95,689.264,260.194,693.908,260.194Z" transform="translate(-524.816 -207.605)"/>
      <path id="Path_259" data-name="Path 259" class="cls-7" d="M696.856,259.049c4.085,0,7.4-1.728,7.4-3.859H689.46C689.46,257.321,692.771,259.049,696.856,259.049Z" transform="translate(-527.565 -207.612)"/>
      <rect id="Rectangle_252" data-name="Rectangle 252" class="cls-2" width="14.792" height="5.788" transform="translate(35.852 1.275)"/>
      <line id="Line_12" data-name="Line 12" class="cls-5" x2="14.792" y2="13.181" transform="translate(0 33.59)"/>
      <line id="Line_13" data-name="Line 13" class="cls-9" x1="36.815" y2="30.688" transform="translate(0 4.167)"/>
      <line id="Line_14" data-name="Line 14" class="cls-10" x1="36.815" y2="29.422" transform="translate(0 4.167)"/>
      <line id="Line_15" data-name="Line 15" class="cls-9" x2="63.021" y2="30.688" transform="translate(49.357 4.167)"/>
      <line id="Line_16" data-name="Line 16" class="cls-11" x2="63.021" y2="29.422" transform="translate(49.357 4.167)"/>
      <line id="Line_17" data-name="Line 17" class="cls-5" x1="12.542" y2="13.502" transform="translate(177.491 33.269)"/>
      <line id="Line_18" data-name="Line 18" class="cls-9" x2="141.48" y2="30.847" transform="translate(48.553 4.008)"/>
      <line id="Line_19" data-name="Line 19" class="cls-10" x2="141.48" y2="29.26" transform="translate(48.553 4.008)"/>
      <path id="Path_260" data-name="Path 260" class="cls-12" d="M707.407,281.835a4.5,4.5,0,1,1-4.5-4.5V257.58" transform="translate(-533.772 -209.271)"/>
      <path id="Path_261" data-name="Path 261" class="cls-13" d="M707.819,283.5a4.18,4.18,0,1,1-4.18-4.18V261" transform="translate(-534.508 -211.646)"/>
      <rect id="Rectangle_253" data-name="Rectangle 253" class="cls-2" width="46.303" height="23.151" transform="translate(27.493 186.484)"/>
    </g>
    <g id="undraw_for_sale_viax" transform="translate(1476.846 2157.278)">
      <path id="Path_225" data-name="Path 225" class="cls-14" d="M709,186.851V176h9.642v20.113Z" transform="translate(-593.131 -147.237)"/>
      <path id="Path_226" data-name="Path 226" class="cls-2" d="M716,198.479V189h7.191v17.988Z" transform="translate(-598.987 -158.113)"/>
      <ellipse id="Ellipse_31" data-name="Ellipse 31" class="cls-1" cx="8.988" cy="8.988" rx="8.988" ry="8.988" transform="translate(124.367)"/>
      <ellipse id="Ellipse_32" data-name="Ellipse 32" class="cls-15" cx="7.191" cy="7.191" rx="7.191" ry="7.191" transform="translate(126.164 1.798)"/>
      <g id="_Group_" data-name="&lt;Group&gt;" transform="translate(0 16.083)">
        <path id="Path_227" data-name="Path 227" class="cls-1" d="M213.461,192.249a14.084,14.084,0,0,0-2.907-21.066,8.335,8.335,0,0,0,1.334-4.535,8.033,8.033,0,0,0-15.784-2.308,11.947,11.947,0,0,0-10.278-5.931,12.142,12.142,0,0,0-12,12.276,12.5,12.5,0,0,0,.735,4.238c-.243-.02-.49-.038-.735-.038a9.753,9.753,0,0,0-9.642,9.855q0,.5.049,1A12.247,12.247,0,0,0,157,196.978a12.1,12.1,0,0,0,11.964,12.237,11.763,11.763,0,0,0,2.071-.186c-.036.407-.057.817-.057,1.237A13.578,13.578,0,0,0,184.4,223.994a13.154,13.154,0,0,0,7.643-2.45,9.853,9.853,0,0,0,6.494,2.45,10.146,10.146,0,0,0,10.029-10.258c0-.245-.02-.49-.036-.727h.036a10.864,10.864,0,0,0,10.74-10.984A11.012,11.012,0,0,0,213.461,192.249Z" transform="translate(-156.999 -158.41)"/>
      </g>
      <path id="_Path_" data-name="&lt;Path&gt;" class="cls-16" d="M221.715,202.507a13.219,13.219,0,0,0-2.729-19.774,7.819,7.819,0,0,0,1.252-4.249,7.541,7.541,0,0,0-14.816-2.167,11.213,11.213,0,0,0-9.642-5.566,11.4,11.4,0,0,0-11.268,11.523,11.733,11.733,0,0,0,.69,3.978c-.229-.018-.458-.036-.69-.036a9.144,9.144,0,0,0-9.046,9.253c0,.315.016.626.046.933a11.5,11.5,0,0,0-6.792,10.552,11.36,11.36,0,0,0,11.231,11.486,11.041,11.041,0,0,0,1.943-.175c-.033.382-.054.77-.054,1.16a12.747,12.747,0,0,0,12.6,12.888,12.348,12.348,0,0,0,7.176-2.288,9.248,9.248,0,0,0,6.093,2.288,9.525,9.525,0,0,0,9.415-9.629c0-.23-.018-.456-.034-.683h.034a10.2,10.2,0,0,0,10.082-10.31,10.335,10.335,0,0,0-5.491-9.183Z" transform="translate(-166.804 -152.651)"/>
      <rect id="Rectangle_199" data-name="Rectangle 199" class="cls-17" width="2.927" height="72.808" transform="translate(32.103 35.148)"/>
      <rect id="Rectangle_200" data-name="Rectangle 200" class="cls-18" width="1.472" height="71.785" transform="translate(32.935 36.171)"/>
      <rect id="Rectangle_201" data-name="Rectangle 201" class="cls-18" width="17.782" height="1.472" transform="translate(32.801 57.324) rotate(-47.2)"/>
      <rect id="Rectangle_202" data-name="Rectangle 202" class="cls-18" width="1.472" height="15.604" transform="matrix(0.596, -0.803, 0.803, 0.596, 20.375, 60.33)"/>
      <g id="_Group_2" data-name="&lt;Group&gt;" transform="translate(32.904 29.715)">
        <path id="Path_228" data-name="Path 228" class="cls-19" d="M363.514,270.129a11.361,11.361,0,0,1-3.082-7.766,11.53,11.53,0,0,1,5.656-9.856,6.7,6.7,0,0,1-1.173-3.787,7.015,7.015,0,0,1,7.133-6.892,7.1,7.1,0,0,1,6.844,4.962,10.7,10.7,0,0,1,9.1-4.962A10.448,10.448,0,0,1,398.616,252.1a9.937,9.937,0,0,1-.653,3.544c.215-.016.431-.03.653-.03a8.391,8.391,0,0,1,8.532,8.243,8.039,8.039,0,0,1-.044.832,10.238,10.238,0,0,1,6.408,9.405,10.418,10.418,0,0,1-10.6,10.237,11.022,11.022,0,0,1-1.834-.163c.031.341.051.685.051,1.034a11.693,11.693,0,0,1-11.889,11.487,12.119,12.119,0,0,1-6.761-2.046,9.026,9.026,0,0,1-5.749,2.046,8.737,8.737,0,0,1-8.882-8.581c0-.206.016-.407.031-.61h-.031a9.355,9.355,0,0,1-9.511-9.189A9.165,9.165,0,0,1,363.514,270.129Z" transform="translate(-358.34 -241.829)"/>
      </g>
      <path id="_Path_2" data-name="&lt;Path&gt;" class="cls-20" d="M370.578,276.066a10.874,10.874,0,0,1-2.942-7.434,11.034,11.034,0,0,1,5.414-9.433,6.407,6.407,0,0,1-1.129-3.631,6.717,6.717,0,0,1,6.828-6.6,6.8,6.8,0,0,1,6.552,4.749,10.247,10.247,0,0,1,8.7-4.744,10.006,10.006,0,0,1,10.175,9.83,9.516,9.516,0,0,1-.623,3.394c.206-.015.412-.031.623-.031a8.036,8.036,0,0,1,8.171,7.89,7.71,7.71,0,0,1-.041.8,9.8,9.8,0,0,1,6.133,9,9.98,9.98,0,0,1-10.142,9.806,10.544,10.544,0,0,1-1.754-.157c.029.327.047.654.047.99a11.193,11.193,0,0,1-11.379,11,11.6,11.6,0,0,1-6.48-1.961,8.639,8.639,0,0,1-5.5,1.961,8.358,8.358,0,0,1-8.5-8.214c0-.2.016-.389.031-.583h-.031a8.954,8.954,0,0,1-9.1-8.8A8.745,8.745,0,0,1,370.578,276.066Z" transform="translate(-331.534 -218.088)"/>
      <line id="_Path_3" data-name="&lt;Path&gt;" class="cls-18" y2="61.11" transform="translate(58.335 46.478)"/>
      <rect id="Rectangle_203" data-name="Rectangle 203" class="cls-21" width="3.329" height="61.108" transform="translate(56.616 46.478)"/>
      <rect id="Rectangle_204" data-name="Rectangle 204" class="cls-18" width="1.84" height="61.108" transform="translate(57.415 46.478)"/>
      <line id="_Path_4" data-name="&lt;Path&gt;" class="cls-18" x1="10.912" y1="11.131" transform="translate(47.609 53.649)"/>
      <rect id="Rectangle_205" data-name="Rectangle 205" class="cls-18" width="1.84" height="15.587" transform="matrix(0.714, -0.7, 0.7, 0.714, 46.952, 54.294)"/>
      <line id="_Path_5" data-name="&lt;Path&gt;" class="cls-18" y1="7.938" x2="11.312" transform="translate(58.521 66.409)"/>
      <rect id="Rectangle_206" data-name="Rectangle 206" class="cls-18" width="13.819" height="1.84" transform="translate(57.992 73.592) rotate(-35.06)"/>
      <path id="Path_229" data-name="Path 229" class="cls-22" d="M532.706,410H450.633c-1.875,0-3.393.843-3.393,1.886v60.252H536.1V411.886C536.1,410.843,534.581,410,532.706,410Z" transform="translate(-399.807 -352.801)"/>
      <path id="Path_230" data-name="Path 230" class="cls-23" d="M341.346,139.04l-42.816,31.8v62.513h85.888V173.111Z" transform="translate(-249.743 -116.317)"/>
      <ellipse id="Ellipse_33" data-name="Ellipse 33" class="cls-1" cx="9.534" cy="9.534" rx="9.534" ry="9.534" transform="translate(82.154 41.874)"/>
      <rect id="Rectangle_207" data-name="Rectangle 207" class="cls-1" width="16.854" height="16.854" transform="translate(56.959 69.796)"/>
      <rect id="Rectangle_208" data-name="Rectangle 208" class="cls-1" width="16.854" height="16.854" transform="translate(109.224 69.796)"/>
      <path id="Path_231" data-name="Path 231" class="cls-1" d="M236.313,154.672,234.03,141.9l53.545-41.152,53,41.974-1.471,11.458L287.566,115.29Z" transform="translate(-195.783 -84.285)"/>
      <path id="Path_232" data-name="Path 232" class="cls-2" d="M240.6,159.277l-1.571-8.823,52.714-41.134,52.2,41.137-1.58,8.815-50.628-39.9Z" transform="translate(-199.966 -91.454)"/>
      <rect id="Rectangle_209" data-name="Rectangle 209" class="cls-1" width="20.6" height="28.176" transform="translate(81.304 88.862)"/>
      <rect id="Rectangle_210" data-name="Rectangle 210" class="cls-2" width="19.408" height="27.58" transform="translate(81.899 89.459)"/>
      <rect id="Rectangle_211" data-name="Rectangle 211" class="cls-2" width="15.663" height="5.534" transform="translate(57.725 70.391)"/>
      <rect id="Rectangle_212" data-name="Rectangle 212" class="cls-24" width="15.663" height="10.129" transform="translate(57.725 75.924)"/>
      <rect id="Rectangle_213" data-name="Rectangle 213" class="cls-2" width="15.663" height="5.534" transform="translate(109.82 70.391)"/>
      <rect id="Rectangle_214" data-name="Rectangle 214" class="cls-24" width="15.663" height="10.129" transform="translate(109.82 75.924)"/>
      <path id="Path_233" data-name="Path 233" class="cls-2" d="M673.073,382.691A8.683,8.683,0,0,0,681.756,374H664.39A8.683,8.683,0,0,0,673.073,382.691Z" transform="translate(-581.47 -322.684)"/>
      <path id="Path_234" data-name="Path 234" class="cls-25" d="M673.073,382.213a8.683,8.683,0,0,0,8.683-8.683H664.39A8.683,8.683,0,0,0,673.073,382.213Z" transform="translate(-581.47 -322.291)"/>
      <path id="Path_235" data-name="Path 235" class="cls-24" d="M673.073,320.92a8.683,8.683,0,0,0-8.683,8.675h17.366A8.683,8.683,0,0,0,673.073,320.92Z" transform="translate(-581.47 -278.279)"/>
      <path id="Path_236" data-name="Path 236" class="cls-24" d="M673.073,320.92a8.683,8.683,0,0,0-8.683,8.675h17.366A8.683,8.683,0,0,0,673.073,320.92Z" transform="translate(-581.47 -278.279)"/>
      <ellipse id="Ellipse_34" data-name="Ellipse 34" class="cls-1" cx="2.043" cy="2.043" rx="2.043" ry="2.043" transform="translate(94.752 101.121)"/>
      <ellipse id="Ellipse_35" data-name="Ellipse 35" class="cls-26" cx="1.533" cy="1.533" rx="1.533" ry="1.533" transform="translate(95.262 101.631)"/>
      <rect id="Rectangle_215" data-name="Rectangle 215" class="cls-1" width="25.025" height="8.171" transform="translate(78.75 113.038)"/>
      <rect id="Rectangle_216" data-name="Rectangle 216" class="cls-23" width="24.004" height="6.98" transform="translate(79.26 113.718)"/>
      <g id="_Group_3" data-name="&lt;Group&gt;" transform="translate(29.296 78.596)">
        <path id="Path_237" data-name="Path 237" class="cls-27" d="M362.288,556.527a6.493,6.493,0,0,0-1.34-9.709,3.839,3.839,0,0,0,.614-2.09,3.7,3.7,0,0,0-7.276-1.064,5.506,5.506,0,0,0-4.739-2.734,5.6,5.6,0,0,0-5.534,5.659,5.762,5.762,0,0,0,.338,1.961c-.113-.008-.224-.018-.338-.018a4.494,4.494,0,0,0-4.442,4.542,3.045,3.045,0,0,0,.023.459,5.646,5.646,0,0,0-3.336,5.182,5.579,5.579,0,0,0,5.516,5.64,5.43,5.43,0,0,0,.954-.087c-.016.188-.026.378-.026.571a6.265,6.265,0,0,0,6.189,6.329,6.065,6.065,0,0,0,3.524-1.128,4.541,4.541,0,0,0,2.991,1.128,4.682,4.682,0,0,0,4.623-4.728c0-.113-.008-.224-.016-.335h.016a5.008,5.008,0,0,0,4.95-5.066A5.076,5.076,0,0,0,362.288,556.527Z" transform="translate(-336.259 -540.93)"/>
      </g>
      <path id="_Path_6" data-name="&lt;Path&gt;" class="cls-16" d="M366.107,561.25a6.094,6.094,0,0,0-1.258-9.114,3.6,3.6,0,0,0,.577-1.961,3.476,3.476,0,0,0-6.83-1,5.169,5.169,0,0,0-4.444-2.566,5.254,5.254,0,0,0-5.194,5.311,5.412,5.412,0,0,0,.319,1.834c-.1,0-.211-.016-.319-.016A4.217,4.217,0,0,0,344.79,558a2.881,2.881,0,0,0,.021.43,5.3,5.3,0,0,0-3.131,4.863,5.237,5.237,0,0,0,5.177,5.3,5.107,5.107,0,0,0,.9-.08c-.015.177-.025.355-.025.534a5.875,5.875,0,0,0,5.808,5.941,5.692,5.692,0,0,0,3.309-1.06,4.264,4.264,0,0,0,2.808,1.06,4.389,4.389,0,0,0,4.339-4.439c0-.106-.008-.211-.016-.315h.016a4.7,4.7,0,0,0,4.648-4.752A4.764,4.764,0,0,0,366.107,561.25Z" transform="translate(-311.498 -467.086)"/>
      <rect id="Rectangle_217" data-name="Rectangle 217" class="cls-1" width="1.35" height="33.561" transform="translate(44.096 87.385)"/>
      <rect id="Rectangle_218" data-name="Rectangle 218" class="cls-18" width="0.678" height="33.09" transform="translate(44.48 87.856)"/>
      <rect id="Rectangle_219" data-name="Rectangle 219" class="cls-18" width="8.197" height="0.678" transform="translate(44.419 97.601) rotate(-47.2)"/>
      <rect id="Rectangle_220" data-name="Rectangle 220" class="cls-18" width="0.678" height="7.192" transform="matrix(0.596, -0.803, 0.803, 0.596, 38.69, 98.994)"/>
      <g id="_Group_4" data-name="&lt;Group&gt;" transform="translate(44.471 84.876)">
        <path id="Path_238" data-name="Path 238" class="cls-28" d="M431.5,592.408a5.231,5.231,0,0,1-1.42-3.581,5.314,5.314,0,0,1,2.615-4.543,3.086,3.086,0,0,1-.544-1.749,3.233,3.233,0,0,1,3.288-3.177,3.268,3.268,0,0,1,3.156,2.288,4.934,4.934,0,0,1,4.2-2.288,4.826,4.826,0,0,1,4.9,4.739,4.571,4.571,0,0,1-.3,1.634c.1,0,.2-.015.3-.015a3.869,3.869,0,0,1,3.934,3.8,3.717,3.717,0,0,1-.02.384,4.72,4.72,0,0,1,2.953,4.336,4.8,4.8,0,0,1-4.885,4.72,5.09,5.09,0,0,1-.845-.072c.015.164.023.316.023.477a5.389,5.389,0,0,1-5.481,5.295,5.588,5.588,0,0,1-3.121-.943,4.161,4.161,0,0,1-2.652.936,4.026,4.026,0,0,1-4.094-3.957,1.786,1.786,0,0,1,.015-.281H433.5a4.312,4.312,0,0,1-4.385-4.236A4.221,4.221,0,0,1,431.5,592.408Z" transform="translate(-429.12 -579.359)"/>
      </g>
      <path id="_Path_7" data-name="&lt;Path&gt;" class="cls-20" d="M434.6,595.135a5.013,5.013,0,0,1-1.36-3.432,5.088,5.088,0,0,1,2.5-4.349,2.953,2.953,0,0,1-.521-1.673,3.1,3.1,0,0,1,3.148-3.041,3.135,3.135,0,0,1,3.02,2.188,4.723,4.723,0,0,1,4.015-2.188,4.612,4.612,0,0,1,4.69,4.532,4.385,4.385,0,0,1-.288,1.564c.095,0,.19-.015.288-.015a3.7,3.7,0,0,1,3.759,3.638,3.55,3.55,0,0,1-.02.368,4.517,4.517,0,0,1,2.827,4.149,4.6,4.6,0,0,1-4.676,4.517,4.842,4.842,0,0,1-.817-.068c.015.15.023.3.023.456a5.157,5.157,0,0,1-5.246,5.066,5.349,5.349,0,0,1-2.987-.9,3.983,3.983,0,0,1-2.536.9,3.857,3.857,0,0,1-3.922-3.787,1.641,1.641,0,0,1,.015-.268H436.5a4.128,4.128,0,0,1-4.2-4.055A4.04,4.04,0,0,1,434.6,595.135Z" transform="translate(-387.309 -497.227)"/>
      <line id="_Path_8" data-name="&lt;Path&gt;" class="cls-18" y2="28.17" transform="translate(56.187 92.607)"/>
      <rect id="Rectangle_221" data-name="Rectangle 221" class="cls-29" width="1.535" height="28.168" transform="translate(55.395 92.607)"/>
      <rect id="Rectangle_222" data-name="Rectangle 222" class="cls-18" width="0.848" height="28.168" transform="translate(55.764 92.607)"/>
      <line id="_Path_9" data-name="&lt;Path&gt;" class="cls-18" x1="5.03" y1="5.132" transform="translate(51.244 95.913)"/>
      <rect id="Rectangle_223" data-name="Rectangle 223" class="cls-18" width="0.848" height="7.186" transform="matrix(0.714, -0.7, 0.7, 0.714, 50.941, 96.21)"/>
      <line id="_Path_10" data-name="&lt;Path&gt;" class="cls-18" y1="3.659" x2="5.215" transform="translate(56.274 101.794)"/>
      <rect id="Rectangle_224" data-name="Rectangle 224" class="cls-18" width="6.37" height="0.848" transform="translate(56.031 105.104) rotate(-35.06)"/>
      <path id="Path_239" data-name="Path 239" class="cls-30" d="M89.22,503.76l11.041,11.476,12.492-11.476" transform="translate(-74.639 -421.433)"/>
      <rect id="Rectangle_225" data-name="Rectangle 225" class="cls-22" width="7.408" height="45.759" transform="translate(3.687 76.516)"/>
      <rect id="Rectangle_226" data-name="Rectangle 226" class="cls-31" width="6.246" height="43.29" transform="translate(4.267 77.387)"/>
      <rect id="Rectangle_227" data-name="Rectangle 227" class="cls-32" width="44.452" height="7.99" transform="translate(1.798 78.405)"/>
      <rect id="Rectangle_228" data-name="Rectangle 228" class="cls-31" width="6.246" height="43.29" transform="translate(2.38 85.522) rotate(-90)"/>
      <ellipse id="Ellipse_36" data-name="Ellipse 36" class="cls-1" cx="1.307" cy="1.307" rx="1.307" ry="1.307" transform="translate(6.156 81.02)"/>
      <ellipse id="Ellipse_37" data-name="Ellipse 37" class="cls-1" cx="1.307" cy="1.307" rx="1.307" ry="1.307" transform="translate(41.165 81.02)"/>
      <ellipse id="Ellipse_38" data-name="Ellipse 38" class="cls-33" cx="1.017" cy="1.017" rx="1.017" ry="1.017" transform="translate(6.447 81.311)"/>
      <ellipse id="Ellipse_39" data-name="Ellipse 39" class="cls-33" cx="1.017" cy="1.017" rx="1.017" ry="1.017" transform="translate(41.456 81.311)"/>
      <rect id="Rectangle_229" data-name="Rectangle 229" class="cls-34" width="28.037" height="19.029" transform="translate(12.403 93.076)"/>
      <rect id="Rectangle_230" data-name="Rectangle 230" class="cls-2" width="27.601" height="18.304" transform="translate(12.62 93.295)"/>
      <rect id="Rectangle_231" data-name="Rectangle 231" class="cls-23" width="19.466" height="1.744" transform="translate(15.816 96.199)"/>
      <rect id="Rectangle_232" data-name="Rectangle 232" class="cls-23" width="13.8" height="1.744" transform="translate(19.376 99.613)"/>
      <rect id="Rectangle_233" data-name="Rectangle 233" class="cls-23" width="16.705" height="1.744" transform="translate(17.632 103.027)"/>
      <rect id="Rectangle_234" data-name="Rectangle 234" class="cls-23" width="19.466" height="1.744" transform="translate(16.034 106.44)"/>
      <g id="_Group_5" data-name="&lt;Group&gt;" transform="translate(117.787 85.257)">
        <path id="Path_240" data-name="Path 240" class="cls-35" d="M880.191,595.872a5.9,5.9,0,0,1,1.219-8.825,3.49,3.49,0,0,1-.559-1.9,3.367,3.367,0,0,1,6.615-.968,5.005,5.005,0,0,1,4.308-2.486,5.089,5.089,0,0,1,5.03,5.145,5.237,5.237,0,0,1-.307,1.776c.1,0,.2-.016.307-.016a4.084,4.084,0,0,1,4.038,4.13,2.727,2.727,0,0,1-.021.417,5.133,5.133,0,0,1,3.033,4.711,5.073,5.073,0,0,1-5.014,5.128,4.934,4.934,0,0,1-.868-.078c.015.163.025.343.025.518a5.691,5.691,0,0,1-5.627,5.754,5.513,5.513,0,0,1-3.2-1.025,4.13,4.13,0,0,1-2.723,1.025,4.253,4.253,0,0,1-4.2-4.3,2.132,2.132,0,0,1,.015-.306h-.015a4.553,4.553,0,0,1-4.5-4.6A4.615,4.615,0,0,1,880.191,595.872Z" transform="translate(-877.74 -581.69)"/>
      </g>
      <path id="_Path_11" data-name="&lt;Path&gt;" class="cls-16" d="M884.941,600.169a5.54,5.54,0,0,1,1.144-8.286,3.267,3.267,0,0,1-.525-1.783,3.161,3.161,0,0,1,6.21-.909,4.7,4.7,0,0,1,4.043-2.334,4.772,4.772,0,0,1,4.721,4.829,4.922,4.922,0,0,1-.289,1.667c.1,0,.191-.015.289-.015a3.834,3.834,0,0,1,3.79,3.876,2.551,2.551,0,0,1-.02.391,4.818,4.818,0,0,1,2.847,4.422,4.76,4.76,0,0,1-4.707,4.813,4.621,4.621,0,0,1-.817-.074c.015.163.023.327.023.49a5.343,5.343,0,0,1-5.282,5.4,5.175,5.175,0,0,1-3.007-.963,3.877,3.877,0,0,1-2.552.963,3.99,3.99,0,0,1-3.945-4.035,1.855,1.855,0,0,1,.015-.286h-.015a4.273,4.273,0,0,1-4.225-4.321A4.332,4.332,0,0,1,884.941,600.169Z" transform="translate(-764.052 -500.756)"/>
      <rect id="Rectangle_235" data-name="Rectangle 235" class="cls-36" width="1.227" height="30.513" transform="translate(129.219 93.249)"/>
      <rect id="Rectangle_236" data-name="Rectangle 236" class="cls-18" width="0.618" height="30.085" transform="translate(129.48 93.677)"/>
      <rect id="Rectangle_237" data-name="Rectangle 237" class="cls-18" width="0.618" height="7.452" transform="translate(124.638 97.508) rotate(-42.8)"/>
      <rect id="Rectangle_238" data-name="Rectangle 238" class="cls-18" width="6.54" height="0.618" transform="matrix(0.803, -0.596, 0.596, 0.803, 129.744, 107.204)"/>
      <g id="_Group_6" data-name="&lt;Group&gt;" transform="translate(106.982 90.961)">
        <path id="Path_241" data-name="Path 241" class="cls-37" d="M832.578,628.46a4.759,4.759,0,0,0,1.291-3.255,4.832,4.832,0,0,0-2.37-4.136,2.806,2.806,0,0,0,.49-1.59A2.941,2.941,0,0,0,829,616.589a2.976,2.976,0,0,0-2.868,2.079,4.487,4.487,0,0,0-3.814-2.079,4.381,4.381,0,0,0-4.455,4.3,4.171,4.171,0,0,0,.273,1.485c-.09,0-.181-.013-.273-.013a3.517,3.517,0,0,0-3.576,3.455,3.351,3.351,0,0,0,.018.348,4.29,4.29,0,0,0-2.685,3.942,4.367,4.367,0,0,0,4.44,4.29,4.583,4.583,0,0,0,.768-.066c-.013.142-.021.288-.021.433a4.9,4.9,0,0,0,4.983,4.814,5.079,5.079,0,0,0,2.837-.858,3.783,3.783,0,0,0,2.417.868,3.661,3.661,0,0,0,3.723-3.6,1.685,1.685,0,0,0-.013-.255h.013a3.921,3.921,0,0,0,3.986-3.852A3.837,3.837,0,0,0,832.578,628.46Z" transform="translate(-811.62 -616.589)"/>
      </g>
      <path id="_Path_12" data-name="&lt;Path&gt;" class="cls-20" d="M834.769,631.006a4.559,4.559,0,0,0,1.242-3.116,4.626,4.626,0,0,0-2.268-3.953,2.684,2.684,0,0,0,.474-1.521,2.815,2.815,0,0,0-2.861-2.765,2.848,2.848,0,0,0-2.745,1.99,4.3,4.3,0,0,0-3.651-1.99,4.194,4.194,0,0,0-4.264,4.12,3.99,3.99,0,0,0,.261,1.422c-.087,0-.173-.013-.261-.013a3.365,3.365,0,0,0-3.422,3.306,3.251,3.251,0,0,0,.018.327,4.107,4.107,0,0,0-2.571,3.772,4.18,4.18,0,0,0,4.249,4.107,4.412,4.412,0,0,0,.735-.062c-.013.137-.02.275-.02.415a4.692,4.692,0,0,0,4.769,4.609,4.863,4.863,0,0,0,2.716-.817,3.62,3.62,0,0,0,2.306.817,3.508,3.508,0,0,0,3.563-3.442,1.518,1.518,0,0,0-.013-.243h.013a3.754,3.754,0,0,0,3.816-3.687A3.674,3.674,0,0,0,834.769,631.006Z" transform="translate(-707.232 -528.188)"/>
      <line id="_Path_13" data-name="&lt;Path&gt;" class="cls-18" y2="25.61" transform="translate(119.453 97.998)"/>
      <rect id="Rectangle_239" data-name="Rectangle 239" class="cls-38" width="1.396" height="25.61" transform="translate(118.779 97.998)"/>
      <rect id="Rectangle_240" data-name="Rectangle 240" class="cls-18" width="0.771" height="25.61" transform="translate(119.067 97.998)"/>
      <line id="_Path_14" data-name="&lt;Path&gt;" class="cls-18" y1="4.664" x2="4.573" transform="translate(119.376 101.003)"/>
      <rect id="Rectangle_241" data-name="Rectangle 241" class="cls-18" width="6.532" height="0.771" transform="matrix(0.7, -0.714, 0.714, 0.7, 119.101, 105.398)"/>
      <line id="_Path_15" data-name="&lt;Path&gt;" class="cls-18" x1="4.743" y1="3.326" transform="translate(114.633 106.351)"/>
      <rect id="Rectangle_242" data-name="Rectangle 242" class="cls-18" width="0.771" height="5.792" transform="translate(114.412 106.668) rotate(-54.94)"/>
    </g>
  </g>
</svg>
