<svg id="parliament" xmlns="http://www.w3.org/2000/svg" viewBox="0 0 65.145 66.661">
  <defs>
    <style>
      .cls-1 {
        fill: #fff;
      }
    </style>
  </defs>
  <g id="Group_15" data-name="Group 15" transform="translate(11.296)">
    <g id="Group_14" data-name="Group 14">
      <path id="Path_6" data-name="Path 6" class="cls-1" d="M116.5,10.65v-8a2.648,2.648,0,0,0-5.3,0v8A21.682,21.682,0,0,0,92.579,28.21h42.553A21.682,21.682,0,0,0,116.5,10.65Z" transform="translate(-92.579)"/>
    </g>
  </g>
  <g id="Group_17" data-name="Group 17" transform="translate(0 30.455)">
    <g id="Group_16" data-name="Group 16" transform="translate(0)">
      <path id="Path_7" data-name="Path 7" class="cls-1" d="M68.318,233.914H8.469a2.648,2.648,0,0,0-2.648,2.648v30.91a2.648,2.648,0,0,0,2.648,2.648H68.318a2.648,2.648,0,0,0,2.648-2.648v-30.91A2.648,2.648,0,0,0,68.318,233.914Zm-43.1,26.737H21.293a2.648,2.648,0,0,1,0-5.3h3.929a2.648,2.648,0,0,1,0,5.3Zm0-10.326H21.293a2.648,2.648,0,0,1,0-5.3h3.929a2.648,2.648,0,0,1,0,5.3Zm15.136,10.326H36.429a2.648,2.648,0,0,1,0-5.3h3.929a2.648,2.648,0,0,1,0,5.3Zm0-10.326H36.429a2.648,2.648,0,0,1,0-5.3h3.929a2.648,2.648,0,0,1,0,5.3Zm15.136,10.326H51.565a2.648,2.648,0,0,1,0-5.3h3.929a2.648,2.648,0,1,1,0,5.3Zm0-10.326H51.565a2.648,2.648,0,0,1,0-5.3h3.929a2.648,2.648,0,0,1,0,5.3Z" transform="translate(-5.821 -233.914)"/>
    </g>
  </g>
</svg>
