<svg xmlns="http://www.w3.org/2000/svg" viewBox="0 0 79.904 81.763"><defs><style>.a{opacity:0.6;}.b{fill:#707070;}</style></defs><g class="a"><g transform="translate(13.855)"><path class="b" d="M121.924,13.063V3.248a3.248,3.248,0,0,0-6.5,0v9.815A26.594,26.594,0,0,0,92.579,34.6h52.194A26.594,26.594,0,0,0,121.924,13.063Z" transform="translate(-92.579)"/></g><g transform="translate(0 37.355)"><g transform="translate(0)"><path class="b" d="M82.477,233.914H9.069a3.248,3.248,0,0,0-3.248,3.248v37.913a3.248,3.248,0,0,0,3.248,3.248H82.477a3.248,3.248,0,0,0,3.248-3.248V237.162A3.248,3.248,0,0,0,82.477,233.914Zm-52.86,32.8H24.8a3.248,3.248,0,0,1,0-6.5h4.819a3.248,3.248,0,0,1,0,6.5Zm0-12.666H24.8a3.248,3.248,0,0,1,0-6.5h4.819a3.248,3.248,0,0,1,0,6.5Zm18.565,12.666H43.364a3.248,3.248,0,0,1,0-6.5h4.819a3.248,3.248,0,0,1,0,6.5Zm0-12.666H43.364a3.248,3.248,0,0,1,0-6.5h4.819a3.248,3.248,0,0,1,0,6.5Zm18.566,12.666H61.929a3.248,3.248,0,0,1,0-6.5h4.819a3.248,3.248,0,0,1,0,6.5Zm0-12.666H61.929a3.248,3.248,0,0,1,0-6.5h4.819a3.248,3.248,0,0,1,0,6.5Z" transform="translate(-5.821 -233.914)"/></g></g></g></svg>