<svg xmlns="http://www.w3.org/2000/svg" xmlns:xlink="http://www.w3.org/1999/xlink" viewBox="0 0 311.65 165.361">
  <defs>
    <style>
      .cls-1, .cls-6 {
        fill: #6c63ff;
      }

      .cls-1, .cls-5 {
        opacity: 0.1;
      }

      .cls-2 {
        fill: url(#linear-gradient);
      }

      .cls-3 {
        fill: #f7d6c8;
      }

      .cls-4 {
        fill: #efb7b9;
      }

      .cls-7 {
        opacity: 0.05;
      }

      .cls-8 {
        fill: #c3705a;
      }

      .cls-9 {
        fill: #ecb4b6;
      }

      .cls-10 {
        fill: #463a3e;
      }

      .cls-11 {
        fill: #c17174;
      }
    </style>
    <linearGradient id="linear-gradient" x1="0.5" y1="1" x2="0.5" gradientUnits="objectBoundingBox">
      <stop offset="0" stop-color="gray" stop-opacity="0.251"/>
      <stop offset="0.54" stop-color="gray" stop-opacity="0.122"/>
      <stop offset="1" stop-color="gray" stop-opacity="0.102"/>
    </linearGradient>
  </defs>
  <g id="undraw_community_8nwl" transform="translate(-0.001 -0.051)">
    <path id="Path_294" data-name="Path 294" class="cls-1" d="M57.705,177.888c.5,3.2,1.8,6.3,1.807,9.537.042,10.587-12.8,17.089-14.769,27.49C43.576,221.087,46.6,227.393,50.864,232s9.7,7.922,14.707,11.709a94.177,94.177,0,0,1,30.854,40.815A39.167,39.167,0,0,1,99.137,294.6c.261,2.525.137,5.108.729,7.574,2.342,9.787,14.219,13.585,24.262,14.219a106.4,106.4,0,0,0,47.334-7.9c3.366-1.4,6.842-3,10.455-2.6,2.889.317,5.467,1.879,8,3.3a106.156,106.156,0,0,0,23.67,9.745c4.572,1.262,9.372,2.222,14.043,1.4,14.026-2.474,21.479-19.485,35.241-23.2,9.521-2.572,19.428,1.921,27.967,6.856s17.353,10.617,27.21,10.632c13.151.017,23.962-9.936,32.882-19.6,1.871-2.028,3.773-4.149,4.665-6.76,1.809-5.3-1.122-11.257-5.456-14.82s-9.8-5.33-15.019-7.366a130.233,130.233,0,0,1-25.182-13.15c-5.105-3.422-10.051-7.293-13.543-12.343-3-4.354-4.808-9.4-6.822-14.292-4.415-10.713-10.66-21.6-21.086-26.626-8.514-4.107-18.4-3.647-27.852-3.756-13.925-.154-28.2-1.829-40.548-8.27-10.427-5.439-18.991-14.026-29.572-19.168-16.831-8.171-36.071-6.57-54.207-6.261-8.716.149-19.075,1.018-27.446-1.837-6.191-2.112-9.378-6.429-16.489-4.69A19.96,19.96,0,0,0,57.705,177.888Z" transform="translate(-44.49 -155.23)"/>
    <path id="Path_295" data-name="Path 295" class="cls-2" d="M351.26,303.775a7.012,7.012,0,0,1,.132-4.449c.842-2.177,2.892-3.748,3.613-5.972,1.341-4.132-2.272-8-4.488-11.745a19.726,19.726,0,0,1-2.64-11.5c.345-4.309,2.109-8.429,2.244-12.749.121-4.025-1.184-7.941-2.471-11.756a40.707,40.707,0,0,0-3.944-9.142,20.924,20.924,0,0,0-15.65-9.17c-2.931-.261-5.8.693-8.679.32-4-.516-7.781-1.554-11.86-1.683-3.874-.115-8.157.376-10.8,3.215-2.017,2.174-2.662,5.313-4.508,7.636-2.62,3.3-7.2,4.427-10.1,7.478a10.6,10.6,0,0,0-2.393,10.219c.4,1.3,1.058,2.511,1.484,3.8,1.792,5.4-.561,11.181-1.983,16.691a2.525,2.525,0,0,0-.084,1.4c.224.673.931,1.027,1.518,1.425a7.94,7.94,0,0,1,3.086,5.989,22.524,22.524,0,0,1-.875,6.881c-1.344,5.748-3.024,11.905-7.453,15.728a40.465,40.465,0,0,0-2.844-5.543,30.11,30.11,0,0,1-4.749-15.01.193.193,0,0,1,0-.048c0-.281.014-.561.031-.842.351-6.126,3-12.037,2.94-18.135q0-.741-.042-1.484c-.345-5.22-2.853-10.048-5.728-14.418a35.116,35.116,0,0,0-7.661-8.788c-4.788-3.644-10.873-5.226-16.85-6.062s-11.417-1.621-17.442-2.025c-6.48-.435-13.611-.679-18.733,3.31-6.679,5.2-7.049,15.246-12.141,22.006-3.03,4.023-7.854,7.131-9.451,11.7a28.251,28.251,0,0,1-1.077-3.436l-.051-.233a33.449,33.449,0,0,0,1.3-17.176,21.134,21.134,0,0,0,.194-2.805,11.047,11.047,0,0,0-.328-3.032c-.721-2.732-2.71-4.917-4.631-6.99a20.512,20.512,0,0,0-2.272-2.2,33.3,33.3,0,0,0-56.787,33.1,8.718,8.718,0,0,1-2.348,5.122c-.62.614-1.422,1.383-1.288,2.168a1.057,1.057,0,0,0,.09.659,1.845,1.845,0,0,0,.561.614,10.1,10.1,0,0,0,6.87,2.048,28.725,28.725,0,0,0,11.568,14.85q0,.281-.02.544c0,.311-.025.62-.039.934v.129c0-.028-9.768,12.733-18.794,13.207-4.819.252-9.024,3.5-12.211,7.22-3.826,4.46-6.188,9.588-6.39,11.007-.373,2.6-2.976,15.254-2.976,15.254H169.1c-.886,4.556-2.081,10.359-2.081,10.359h121.4c-.281-3.9-.592-7.509-.881-10.564h15.263l-.017.093H373.2l4.466-6.7C376.557,315.7,365.039,304.965,351.26,303.775ZM175.967,281.962a18.187,18.187,0,0,0,5.049,1.818,3.035,3.035,0,0,0,2.275-.174,2.615,2.615,0,0,0,.917-1.3l.034.084c1.893,4.769,3.647,9.689,3.986,14.811.031.482.05.965.053,1.45a20.976,20.976,0,0,1-1.77,8.488A163.62,163.62,0,0,1,168.2,295.921l-.4-.168c0,.031.137.382.3.973.039.143.081.3.123.468q-.6-1.944-1.086-3.969l-.109-.48A28.761,28.761,0,0,0,175.967,281.962Z" transform="translate(-80.191 -204.007)"/>
    <path id="Path_301" data-name="Path 301" class="cls-3" d="M754.634,236.741c-3.812-.115-8.031.37-10.626,3.164-1.986,2.138-2.62,5.229-4.438,7.515-2.578,3.246-7.086,4.356-9.941,7.361a10.429,10.429,0,0,0-2.356,10.059c.4,1.279,1.041,2.471,1.461,3.742,1.764,5.33-.539,11-1.964,16.427a2.472,2.472,0,0,0-.081,1.386c.219.662.917,1.01,1.492,1.4a7.758,7.758,0,0,1,3.024,5.891,22.61,22.61,0,0,1-.861,6.772c-1.377,5.891-3.117,12.233-7.9,15.944-2.02,1.585-4.718,2.87-5.246,5.394-.617,2.957,2.2,5.47,4.912,6.808,7.947,3.927,17.173,3.983,25.866,5.734,7.655,1.543,15.291,4.466,23.039,3.467a46.467,46.467,0,0,0,10.023-2.861l20.349-7.5a5.294,5.294,0,0,0,1.6-.805c1.226-1.021,1.268-2.962.6-4.412a16.069,16.069,0,0,0-2.945-3.75c-2.323-2.6-4.09-6.272-2.822-9.521.842-2.143,2.847-3.689,3.557-5.891,1.318-4.067-2.244-7.877-4.4-11.563a19.414,19.414,0,0,1-2.6-11.308c.339-4.241,2.076-8.3,2.2-12.55.118-3.961-1.164-7.815-2.432-11.571a40.11,40.11,0,0,0-3.882-9,20.608,20.608,0,0,0-15.406-9.027c-2.886-.255-5.706.682-8.542.317C762.374,237.883,758.649,236.861,754.634,236.741Z" transform="translate(-528.433 -213.828)"/>
    <path id="Path_302" data-name="Path 302" class="cls-4" d="M825.6,464.543s-23.069-14.463-14.1-31.137a25.727,25.727,0,0,0,3.181-10.831,23.351,23.351,0,0,0,0-2.634v-.126q-.045-.679-.121-1.335a27.185,27.185,0,0,0-6.724-14.539s38.265-11.167,31.858-1.1c-2.973,4.673-2.084,9.257-.093,14,.21.5.435,1,.668,1.506,2.3,5,5.492,10.183,6.385,15.8C848.487,445.685,825.6,464.543,825.6,464.543Z" transform="translate(-593.709 -330.32)"/>
    <path id="Path_303" data-name="Path 303" class="cls-5" d="M839.7,402.838c-2.973,4.673-2.084,9.257-.093,14a25.855,25.855,0,0,1-25.05,1.649,27.146,27.146,0,0,0-6.715-14.55S846.108,392.768,839.7,402.838Z" transform="translate(-593.709 -330.317)"/>
    <circle id="Ellipse_43" data-name="Ellipse 43" class="cls-4" cx="25.816" cy="25.816" r="25.816" transform="translate(206.074 38.467)"/>
    <path id="Path_304" data-name="Path 304" class="cls-5" d="M832.24,474.177v-.126l.031-.051A.84.84,0,0,0,832.24,474.177Z" transform="translate(-611.265 -384.544)"/>
    <path id="Path_305" data-name="Path 305" class="cls-5" d="M829.685,515.076s-23.07-14.463-14.1-31.137a25.727,25.727,0,0,0,3.181-10.831c.524,4.118,3.366,9.237,8.539,16.323,2.244,3.086,3.209,7.4,3.515,11.711l.513.373,2.525-1.526c.281-4.769,1.245-9.588,3.529-13,6-8.976,7.425-13.465,6.982-18.116,2.3,5,5.493,10.183,6.385,15.8C852.57,496.217,829.685,515.076,829.685,515.076Z" transform="translate(-597.792 -380.853)"/>
    <path id="Path_306" data-name="Path 306" class="cls-6" d="M759.245,479.809c-13.745-1-22.441-11.669-22.441-11.669.732,5-.457,9.473-6.867,19.075-2.269,3.405-3.232,8.216-3.512,13l-2.525,1.526-.513-.373c-.306-4.309-1.268-8.629-3.515-11.711-6.407-8.789-9.257-14.556-8.514-19.134,0,0-7.049,11.442-20.78,12.359s-25.266,10.62-26.368,28.38L668.6,517.3h43.331l-.017.093H781.2l4.41-6.6C784.511,491.4,772.99,480.808,759.245,479.809Z" transform="translate(-490.369 -380.327)"/>
    <path id="Path_307" data-name="Path 307" class="cls-7" d="M759.245,479.809c-13.745-1-22.441-11.669-22.441-11.669.732,5-.457,9.473-6.867,19.075-2.269,3.405-3.232,8.216-3.512,13l-2.525,1.526-.513-.373c-.306-4.309-1.268-8.629-3.515-11.711-6.407-8.789-9.257-14.556-8.514-19.134,0,0-7.049,11.442-20.78,12.359s-25.266,10.62-26.368,28.38L668.6,517.3h43.331l-.017.093H781.2l4.41-6.6C784.511,491.4,772.99,480.808,759.245,479.809Z" transform="translate(-490.369 -380.327)"/>
    <path id="Path_308" data-name="Path 308" class="cls-5" d="M817.225,292.942a21.038,21.038,0,0,1-5.291,7.181c-3.007,2.847-6.788,5.355-10.923,5.161a16.755,16.755,0,0,0,4.715-7.748c-2.609,1.52-4.581,3.927-7.072,5.641s-6.011,2.6-8.446.808A25.319,25.319,0,0,0,800.776,294c-5.913,1.534-8.948,8.194-14.275,11.184a16.2,16.2,0,0,1-8.278,1.868c-2.034-.042-4.3-.516-5.434-2.2a6.263,6.263,0,0,1-.841-3.4,23.254,23.254,0,0,1,5.442-14.848,38.89,38.89,0,0,1,12.646-9.843,17.481,17.481,0,0,1,5.383-1.964,19.464,19.464,0,0,1,7.086.693,40.406,40.406,0,0,1,8.817,2.805C817.242,281.222,819.828,286.535,817.225,292.942Z" transform="translate(-567.881 -241.136)"/>
    <path id="Path_309" data-name="Path 309" class="cls-3" d="M817.225,291.632a21.037,21.037,0,0,1-5.291,7.181c-3.007,2.847-6.788,5.355-10.923,5.161a16.756,16.756,0,0,0,4.715-7.748c-2.609,1.52-4.581,3.927-7.072,5.641s-6.011,2.6-8.446.808a25.319,25.319,0,0,0,10.567-9.983c-5.913,1.534-8.948,8.194-14.275,11.184a16.2,16.2,0,0,1-8.278,1.868c-2.034-.042-4.3-.516-5.434-2.2a6.263,6.263,0,0,1-.841-3.4,23.254,23.254,0,0,1,5.442-14.848,38.89,38.89,0,0,1,12.646-9.843,17.481,17.481,0,0,1,5.383-1.964,19.464,19.464,0,0,1,7.086.693,40.4,40.4,0,0,1,8.817,2.805C817.242,279.906,819.828,285.225,817.225,291.632Z" transform="translate(-567.881 -240.194)"/>
    <circle id="Ellipse_44" data-name="Ellipse 44" class="cls-8" cx="32.772" cy="32.772" r="32.772" transform="translate(38.568 20.088)"/>
    <path id="Path_310" data-name="Path 310" class="cls-9" d="M274.847,430.664s-30.015,7.689-30.758,8.415-25.266,2.014-18.127-13c2.623-5.512,3.714-13,4.045-20.267.014-.309.028-.614.039-.92a149.705,149.705,0,0,0-1.153-23.487s34.784-13.745,32.223,7.142a43.641,43.641,0,0,0,1.052,15.324c.387,1.638.842,3.24,1.347,4.794A81.743,81.743,0,0,0,274.847,430.664Z" transform="translate(-174.12 -314.73)"/>
    <path id="Path_311" data-name="Path 311" class="cls-5" d="M273.015,403.892a28.2,28.2,0,0,1-32.122,1.021,149.71,149.71,0,0,0-1.153-23.487s34.784-13.745,32.223,7.142A43.763,43.763,0,0,0,273.015,403.892Z" transform="translate(-184.969 -314.745)"/>
    <circle id="Ellipse_45" data-name="Ellipse 45" class="cls-9" cx="28.194" cy="28.194" r="28.194" transform="translate(43.054 37.755)"/>
    <path id="Path_312" data-name="Path 312" class="cls-5" d="M274.847,504.651s-30.015,7.689-30.758,8.415-25.266,2.014-18.127-13c2.623-5.512,3.714-13,4.045-20.267.281,3.8,2.452,13,2.729,16.057a2.668,2.668,0,0,0,.107.527c.407,1.36,1.857,2.929,3.6,4.415l.1.087a13.372,13.372,0,0,0,15.748,1.052,71.016,71.016,0,0,0,7.17-5.167,12.543,12.543,0,0,0,4.41-9.537,20.421,20.421,0,0,0-.365-4.595A81.694,81.694,0,0,0,274.847,504.651Z" transform="translate(-174.12 -388.717)"/>
    <path id="Path_313" data-name="Path 313" class="cls-6" d="M224.495,526.237H102s2.564-12.449,2.929-15.013c.2-1.4,2.525-6.452,6.292-10.836,3.136-3.647,7.274-6.859,12.017-7.108,8.878-.466,18.491-13,18.491-13h0c.213,3.647,2.463,13.17,2.746,16.3a2.668,2.668,0,0,0,.107.527c.407,1.36,1.857,2.929,3.6,4.415l.1.087a13.369,13.369,0,0,0,15.748,1.055,71.326,71.326,0,0,0,7.17-5.167,12.543,12.543,0,0,0,4.41-9.537,21.126,21.126,0,0,0-.766-6.309,9.99,9.99,0,0,0-.3-.957l.39.166s16.587,12.062,31.782,16.994a18.171,18.171,0,0,1,4.982,2.525,21.535,21.535,0,0,1,3.383,3.038,31.493,31.493,0,0,1,5.049,7.767A53.314,53.314,0,0,1,224.495,526.237Z" transform="translate(-85.867 -389.062)"/>
    <path id="Path_314" data-name="Path 314" class="cls-7" d="M224.495,526.237H102s2.564-12.449,2.929-15.013c.2-1.4,2.525-6.452,6.292-10.836,3.136-3.647,7.274-6.859,12.017-7.108,8.878-.466,18.491-13,18.491-13h0c.213,3.647,2.463,13.17,2.746,16.3a2.668,2.668,0,0,0,.107.527c.407,1.36,1.857,2.929,3.6,4.415l.1.087a13.369,13.369,0,0,0,15.748,1.055,71.326,71.326,0,0,0,7.17-5.167,12.543,12.543,0,0,0,4.41-9.537,21.126,21.126,0,0,0-.766-6.309,9.99,9.99,0,0,0-.3-.957l.39.166s16.587,12.062,31.782,16.994a18.171,18.171,0,0,1,4.982,2.525,21.535,21.535,0,0,1,3.383,3.038,31.493,31.493,0,0,1,5.049,7.767A53.314,53.314,0,0,1,224.495,526.237Z" transform="translate(-85.867 -389.062)"/>
    <path id="Path_315" data-name="Path 315" class="cls-5" d="M224.509,277.9c.729,2.805,1.683,5.922,4.188,7.383a3.677,3.677,0,0,1,.917.626c.617.67.429,1.717.337,2.626a10.855,10.855,0,0,0,3.22,8.516,16.005,16.005,0,0,0,8.247,4.23,3,3,0,0,0,2.244-.171,2.617,2.617,0,0,0,.92-1.321,11.176,11.176,0,0,0-.222-7.153c-.715-2.323-1.77-4.539-2.311-6.909-1.288-5.624.418-11.437,1.187-17.156a14.731,14.731,0,0,0-.087-5.717c-.71-2.687-2.668-4.842-4.558-6.881a14.062,14.062,0,0,0-3.366-2.931c-3.854-2.107-8.817-.236-12.932-1.77a48.507,48.507,0,0,1-4.614-2.525,16.724,16.724,0,0,0-10.926-1.01,49.8,49.8,0,0,0-10.455,3.9l-2.589,1.173c-3.647,1.683-7.554,3.585-9.518,7.105-2.09,3.748-1.509,8.544-3.6,12.292a10.2,10.2,0,0,0-1.683,3.49,6.959,6.959,0,0,0,.44,2.763,22.12,22.12,0,0,1,1.167,6.732,9.045,9.045,0,0,1-2.4,6.244c-.684.679-1.6,1.548-1.178,2.415a1.817,1.817,0,0,0,.561.606,9.933,9.933,0,0,0,9.462,1.4,6.145,6.145,0,0,0,3.086-2.328,9.113,9.113,0,0,0,.993-2.6,36.361,36.361,0,0,0,1.708-10.079,35.665,35.665,0,0,1-.112-5.891c.286-1.947,1.422-3.952,3.316-4.488,1.4-.4,2.9.084,4.368.07,2.109-.017,4.7-2.356,6.651-1.669,1.683.595,3.016,3.815,4.407,5.049A15.977,15.977,0,0,0,224.509,277.9Z" transform="translate(-139.706 -221.419)"/>
    <path id="Path_316" data-name="Path 316" class="cls-8" d="M224.566,276.555c.729,2.805,1.683,5.922,4.188,7.383a3.677,3.677,0,0,1,.906.611c.617.67.429,1.717.337,2.626a10.855,10.855,0,0,0,3.22,8.516,16.005,16.005,0,0,0,8.247,4.23,3,3,0,0,0,2.244-.171,2.617,2.617,0,0,0,.92-1.321,11.176,11.176,0,0,0-.222-7.153c-.715-2.323-1.77-4.539-2.311-6.909-1.288-5.624.418-11.437,1.187-17.156a14.731,14.731,0,0,0-.087-5.717c-.71-2.687-2.668-4.842-4.558-6.881a14.061,14.061,0,0,0-3.366-2.931c-3.854-2.107-8.817-.236-12.932-1.77a48.508,48.508,0,0,1-4.614-2.525,16.724,16.724,0,0,0-10.926-1.01,49.8,49.8,0,0,0-10.455,3.9l-2.555,1.178c-3.647,1.683-7.554,3.585-9.518,7.105-2.09,3.748-1.509,8.544-3.6,12.292a10.2,10.2,0,0,0-1.683,3.49,6.959,6.959,0,0,0,.44,2.763,22.119,22.119,0,0,1,1.167,6.732,9.045,9.045,0,0,1-2.4,6.244c-.684.679-1.6,1.548-1.178,2.415a1.819,1.819,0,0,0,.561.606,9.933,9.933,0,0,0,9.462,1.4,6.145,6.145,0,0,0,3.086-2.328,9.114,9.114,0,0,0,.993-2.6,36.361,36.361,0,0,0,1.708-10.079,35.663,35.663,0,0,1-.112-5.891c.286-1.947,1.422-3.952,3.316-4.488,1.4-.4,2.9.084,4.368.07,2.109-.017,4.7-2.356,6.651-1.669,1.683.595,3.016,3.815,4.407,5.049A15.866,15.866,0,0,0,224.566,276.555Z" transform="translate(-139.764 -220.441)"/>
    <rect id="Rectangle_268" data-name="Rectangle 268" class="cls-10" width="64.266" height="55.11" transform="translate(114.459 68.09)"/>
    <rect id="Rectangle_269" data-name="Rectangle 269" class="cls-7" width="64.266" height="55.11" transform="translate(114.459 68.09)"/>
    <path id="Path_317" data-name="Path 317" class="cls-11" d="M507.751,477.186H452.77c.71-4,2.785-8.39,6.831-13.12a48.529,48.529,0,0,0,7.748-12.4q.783-1.8,1.4-3.616a52.947,52.947,0,0,0,2.466-11.058,3.1,3.1,0,0,1,.036-.32,60.411,60.411,0,0,0,.342-7.832v-.561a71.366,71.366,0,0,0-3.156-18.912l-.07-.219c-.6-1.882-1.035-2.94-1.035-2.94s1.091-.592,2.892-1.464l.151-.073c6.623-3.181,22.3-9.818,29.213-5.089l.112.076c2.418,1.722,3.72,4.884,3.108,10.149v.062a2.765,2.765,0,0,1-.031.281,101.88,101.88,0,0,0-.525,10.923c0,.182,0,.365,0,.561q0,1.282.028,2.6v.353c.056,2.833.182,5.759.359,8.727.244,4.115.592,8.306.993,12.418.171,1.759.356,3.506.561,5.226.022.2.045.41.067.609.236,2.1.48,4.149.729,6.14l.017.129C505.964,465.746,507.019,472.652,507.751,477.186Z" transform="translate(-338.241 -329.817)"/>
    <path id="Path_318" data-name="Path 318" class="cls-5" d="M540.108,409.852v.062a100.861,100.861,0,0,0-.561,11.221v.561a26.764,26.764,0,0,1-30.646,7.2v-.561a71.227,71.227,0,0,0-3.226-19.131c-.6-1.882-1.035-2.94-1.035-2.94s1.091-.592,2.892-1.464c6.558-3.17,22.562-10.014,29.468-5.1C539.415,401.425,540.717,404.586,540.108,409.852Z" transform="translate(-375.561 -329.848)"/>
    <circle id="Ellipse_46" data-name="Ellipse 46" class="cls-11" cx="26.739" cy="26.739" r="26.739" transform="translate(116.983 47.093)"/>
    <path id="Path_319" data-name="Path 319" class="cls-5" d="M415.583,598H358.54s2.564-12.449,2.929-15.013c.2-1.4,2.525-6.452,6.292-10.836a27.676,27.676,0,0,1,17.022-6.04c10.909-.163,14.085,3.593,14.946,6.37a6.22,6.22,0,0,1,.224,2.886l2.065,2.99Z" transform="translate(-270.444 -450.809)"/>
    <path id="Path_320" data-name="Path 320" class="cls-6" d="M414.933,598.646H357.89s2.564-12.449,2.929-15.013c.2-1.4,2.525-6.452,6.292-10.836a27.675,27.675,0,0,1,17.022-6.039c10.909-.163,14.085,3.593,14.946,6.37a6.219,6.219,0,0,1,.224,2.886l2.065,2.99Z" transform="translate(-269.977 -451.277)"/>
    <path id="Path_321" data-name="Path 321" class="cls-5" d="M629.926,595.58H570.16c2.85-6.065,10.32-22.234,10.735-25.973.16-1.447,1.7-2.805,3.745-3.958a21.277,21.277,0,0,1,1.989-1l.123-.056q.561-.247,1.136-.457a22.766,22.766,0,0,1,15.989.126c4.906,1.865,11.221,4.379,16.135,6.732l.039.02c1.262.606,2.438,1.2,3.473,1.767a13.632,13.632,0,0,1,4.163,3,19.134,19.134,0,0,1,.884,4.769C629,584.157,629.469,589.509,629.926,595.58Z" transform="translate(-422.702 -448.393)"/>
    <path id="Path_322" data-name="Path 322" class="cls-6" d="M630.576,596.23H570.81c2.85-6.065,10.32-22.234,10.735-25.973.16-1.447,1.7-2.805,3.745-3.958a21.286,21.286,0,0,1,1.989-1l.123-.056q.561-.247,1.136-.457a22.767,22.767,0,0,1,15.989.126c4.906,1.865,11.221,4.379,16.135,6.732l.039.02c1.262.606,2.438,1.2,3.473,1.767a13.632,13.632,0,0,1,4.163,3,19.137,19.137,0,0,1,.884,4.769C629.653,584.807,630.119,590.162,630.576,596.23Z" transform="translate(-423.169 -448.861)"/>
    <path id="Path_323" data-name="Path 323" class="cls-5" d="M467.98,352.658q0,1.293-.07,2.589-.039.631-.1,1.262c-.025.3-.056.6-.087.9l-.039.348c-.457,4.079-1.3,8.135-1.4,12.233v.581a51.053,51.053,0,0,0,1.447,11.411H433.314c-.056-.7-.084-1.4-.076-2.1a18.39,18.39,0,0,1,.1-1.879c.53-5.164,3.17-10,3.568-15.128l.017-.236c.025-.384.039-.771.034-1.159v-.1a19.833,19.833,0,0,0-.777-5.01l-.067-.244a50.467,50.467,0,0,0-1.683-4.769l-.123-.311c-.934-2.334-1.916-4.648-2.581-6.968a18.542,18.542,0,0,1-.811-5.33c0-.323.02-.645.045-.968.022-.264.053-.527.093-.794a12.446,12.446,0,0,1,.247-1.237,27.182,27.182,0,0,1,2.906-6.337h0c1.276-2.286,2.494-4.547,2.713-6.951a8.037,8.037,0,0,0,.031-.914h0a8.055,8.055,0,0,0-.112-1.173,20.121,20.121,0,0,0-1.893-4.814c-.073-.16-.146-.32-.216-.482,0-.025-.022-.051-.031-.076a64.428,64.428,0,0,1-3.072-10.135c-.036-.149-.073-.3-.112-.443-.21-.842-.426-1.683-.656-2.525-1.257-4.589-3.046-9.226-6.452-12.539s-8.836-4.99-13.1-2.881c-3.689,1.837-5.686,5.95-6.586,9.967s-.973,8.211-2.143,12.16q-.126.432-.281.861c-.051.146-.1.281-.151.44a44.078,44.078,0,0,1-1.79,4.255l-.07.149c-2.132,4.536-4.609,8.993-4.687,13.552v.426a11.757,11.757,0,0,0,.488,3.2,15.934,15.934,0,0,0,2.76,5.049q.351.457.718.906c1.178,1.447,2.457,2.85,3.577,4.342l.036.048a17.744,17.744,0,0,1,2.14,3.571,13.035,13.035,0,0,1,.056,10.07,18.913,18.913,0,0,1-1.091,2.149c-.721,1.245-1.515,2.457-2.14,3.753a14.023,14.023,0,0,0-.561,1.327c-1.4,3.613-1.706,7.61-2.85,11.338a25.743,25.743,0,0,1-4.076,7.936H358.19c.424-2.073,2.525-12.343,2.856-14.648.2-1.4,2.525-6.452,6.292-10.836-.317.25-.623.5-.917.755a31.2,31.2,0,0,0-6.107,7.03c.081-.252.165-.508.25-.76.513-1.532,1.069-3.049,1.633-4.547,1.633-4.314,3.45-8.716,6.7-11.986,1.837-1.846,4.073-3.268,5.823-5.2,3.086-3.391,4.362-8.09,4.326-12.7,0-.477-.02-.951-.051-1.425-.334-5.049-2.059-9.883-3.927-14.587-1-2.525-2.07-5.178-2.023-7.854a8.752,8.752,0,0,1,.081-1.122c.771-5.546,6.382-8.867,9.751-13.341,5.01-6.657,5.375-16.55,11.947-21.661,5.049-3.927,12.062-3.686,18.438-3.26,5.93.4,11.282,1.17,17.167,1.994s11.857,2.373,16.578,6a34.548,34.548,0,0,1,7.54,8.651c2.828,4.3,5.3,9.055,5.638,14.191.025.367.039.732.039,1.094.059,6-2.547,11.821-2.892,17.849-.014.281-.025.561-.028.842a.194.194,0,0,0,0,.045c-.062,5.226,1.944,10.713,4.673,15.148A40.627,40.627,0,0,1,467.98,352.658Z" transform="translate(-270.192 -234.617)"/>
    <path id="Path_324" data-name="Path 324" class="cls-10" d="M467.765,351.744c0,.741-.028,1.484-.07,2.222q-.039.631-.1,1.262t-.126,1.251c-.457,4.079-1.3,8.135-1.4,12.233v.945a52.694,52.694,0,0,0,1.529,11.411H433.13c-.065-.7-.1-1.4-.109-2.1a20.054,20.054,0,0,1,.1-2.244c.53-5.164,3.17-10,3.568-15.128.028-.376.048-.752.051-1.122v-.264a20.066,20.066,0,0,0-.839-5.358,50.451,50.451,0,0,0-1.683-4.769c-.971-2.438-2.011-4.858-2.707-7.293a18.971,18.971,0,0,1-.811-4.973,13.043,13.043,0,0,1,.045-1.335c.022-.264.053-.527.093-.794a12.433,12.433,0,0,1,.247-1.237,27.18,27.18,0,0,1,2.906-6.337c1.279-2.289,2.5-4.556,2.718-6.962.017-.182.025-.367.031-.561h0a7.852,7.852,0,0,0-.112-1.54,20.121,20.121,0,0,0-1.893-4.814c-.073-.16-.146-.32-.216-.482a63.056,63.056,0,0,1-3.1-10.211c-.247-.993-.5-1.986-.766-2.971-1.257-4.589-3.046-9.226-6.452-12.539s-8.828-4.957-13.089-2.836c-3.689,1.837-5.686,5.95-6.586,9.967s-.973,8.211-2.143,12.16c-.129.435-.281.87-.424,1.3-.522,1.478-1.173,2.945-1.857,4.4-2.191,4.654-4.741,9.232-4.687,13.919v.059a11.756,11.756,0,0,0,.488,3.2,15.934,15.934,0,0,0,2.76,5.049q.351.457.718.906c1.192,1.464,2.485,2.881,3.613,4.39a17.746,17.746,0,0,1,2.14,3.571,13.036,13.036,0,0,1,.056,10.07,18.927,18.927,0,0,1-1.091,2.149c-.721,1.245-1.515,2.457-2.14,3.753a14.02,14.02,0,0,0-.561,1.327c-1.4,3.613-1.706,7.61-2.85,11.338a25.808,25.808,0,0,1-4.356,8.3h-36.3s2.564-12.449,2.929-15.013c.182-1.282,2.149-5.61,5.375-9.714.281-.376.6-.752.917-1.122a31.43,31.43,0,0,0-6.772,7.389l-.25.393c.583-1.793,1.226-3.563,1.885-5.307,1.633-4.314,3.45-8.716,6.7-11.986,1.837-1.846,4.073-3.268,5.823-5.2a18.482,18.482,0,0,0,4.326-12.343c0-.6,0-1.2-.051-1.793-.334-5.049-2.059-9.883-3.927-14.587a22.407,22.407,0,0,1-2.023-7.5,9.116,9.116,0,0,1,.081-1.478c.774-5.515,6.385-8.822,9.754-13.31,5.01-6.657,5.375-16.55,11.947-21.661,5.049-3.927,12.062-3.686,18.438-3.26,5.93.4,11.282,1.17,17.168,1.994s11.866,2.37,16.581,5.986a34.759,34.759,0,0,1,7.54,8.654c2.828,4.3,5.3,9.055,5.638,14.191q.05.732.039,1.461c-.048,5.871-2.555,11.577-2.892,17.484-.022.4-.034.794-.028,1.2a.19.19,0,0,0,0,.045,29.642,29.642,0,0,0,4.673,14.775A40.63,40.63,0,0,1,467.765,351.744Z" transform="translate(-269.977 -233.703)"/>
  </g>
</svg>
