<svg xmlns="http://www.w3.org/2000/svg" viewBox="0 0 744 24" width="744" height="24"><path d="M3 18h18v-2H3v2zm0-5h18v-2H3v2zm0-7v2h18V6H3zM27 18h18v-2H27v2zm0-5h18v-2H27v2zm0-7v2h18V6H27zM51 18h18v-2H51v2zm0-5h18v-2H51v2zm0-7v2h18V6H51zM75 18h18v-2H75v2zm0-5h18v-2H75v2zm0-7v2h18V6H75zM99 18h18v-2H99v2zm0-5h18v-2H99v2zm0-7v2h18V6H99zM123 18h18v-2h-18v2zm0-5h18v-2h-18v2zm0-7v2h18V6h-18zM147 18h18v-2h-18v2zm0-5h18v-2h-18v2zm0-7v2h18V6h-18zM171 18h18v-2h-18v2zm0-5h18v-2h-18v2zm0-7v2h18V6h-18zM195 18h18v-2h-18v2zm0-5h18v-2h-18v2zm0-7v2h18V6h-18zM219.132 17.973l2.47-.369 1.733-.369 2.195-.093 2.47.369 2.47-.369 2.195.093 1.733.369 2.47.369-.093-1.775-17.181-.369-.369 2.237-.093-.093m.462-5.039v-1.868h16.812v1.868h-16.812m0-6.868h16.812v1.868h-16.812V6.066M243.825 17.831l3.629-2.307-.986-2.308 1.903-.582L252 14.942l3.629-2.308 1.903.582-.986 2.308 3.629 2.307-.582-.593-12.878-2.307-2.308 3.482-.582-.582m2.89-5.244v-1.174h10.57v1.174h-10.57m0-6.174h10.57v1.174h-10.57V6.413M268.507 17.691l4.768-4.213-3.659-4.213 1.617-1.063L276 12.415l4.767-4.213 1.617 1.063-3.659 4.213 4.768 4.213-1.063.57-8.647-4.213-4.213 4.706-1.063-1.063m5.276-5.445v-.492h4.434v.492h-4.434m0-5.492h4.434v.492h-4.434v-.492M292.822 17.627l5.292-5.092-4.891-5.092 1.485-1.285L300 11.25l5.292-5.092 1.485 1.285-4.891 5.092 5.292 5.092-1.284 1.106-6.696-5.092-5.092 5.27-1.284-1.284m6.376-5.538v-.178h1.604v.178h-1.604m0-5.178h1.604v.178h-1.604v-.178M316.959 17.598l5.522-5.475-5.43-5.476 1.427-1.381L324 10.742l5.522-5.476 1.427 1.381-5.43 5.476 5.522 5.475-1.381 1.341-5.844-5.476-5.476 5.517-1.381-1.382m6.857-5.578v-.04h.368v.04h-.368m0-5.04h.368v.04h-.368v-.04M341 17.59l5.589-5.589L341 6.412l1.41-1.41 5.59 5.589 5.59-5.589 1.41 1.41-5.589 5.589L355 17.59 353.59 19l-5.591-5.59L342.41 19 341 17.59m6.999-5.59h.002-.002m0-5h.002-.002M365 17.59l5.59-5.59L365 6.41 366.41 5l5.59 5.59L377.59 5 379 6.41 373.41 12l5.59 5.59-1.41 1.41-5.59-5.59-5.59 5.59-1.41-1.41M389 17.59l5.59-5.59L389 6.41 390.41 5l5.59 5.59L401.59 5 403 6.41 397.41 12l5.59 5.59-1.41 1.41-5.59-5.59-5.59 5.59-1.41-1.41M413 17.59l5.59-5.59L413 6.41 414.41 5l5.59 5.59L425.59 5 427 6.41 421.41 12l5.59 5.59-1.41 1.41-5.59-5.59-5.59 5.59-1.41-1.41M437 17.59l5.59-5.59L437 6.41 438.41 5l5.59 5.59L449.59 5 451 6.41 445.41 12l5.59 5.59-1.41 1.41-5.59-5.59-5.59 5.59-1.41-1.41M461 17.59l5.59-5.59L461 6.41 462.41 5l5.59 5.59L473.59 5 475 6.41 469.41 12l5.59 5.59-1.41 1.41-5.59-5.59-5.59 5.59-1.41-1.41M485 17.59l5.59-5.59L485 6.41 486.41 5l5.59 5.59L497.59 5 499 6.41 493.41 12l5.59 5.59-1.41 1.41-5.59-5.59-5.59 5.59-1.41-1.41M509 17.59l5.59-5.59L509 6.41 510.41 5l5.59 5.59L521.59 5 523 6.41 517.41 12l5.59 5.59-1.41 1.41-5.59-5.59-5.59 5.59-1.41-1.41M533 17.59l5.59-5.59L533 6.41 534.41 5l5.59 5.59L545.59 5 547 6.41 541.41 12l5.59 5.59-1.41 1.41-5.59-5.59-5.59 5.59-1.41-1.41M557 17.59l5.59-5.59L557 6.41 558.41 5l5.59 5.59L569.59 5 571 6.41 565.41 12l5.59 5.59-1.41 1.41-5.59-5.59-5.59 5.59-1.41-1.41M581 17.59l5.59-5.59L581 6.41 582.41 5l5.59 5.59L593.59 5 595 6.41 589.41 12l5.59 5.59-1.41 1.41-5.59-5.59-5.59 5.59-1.41-1.41M605 17.59l5.59-5.59L605 6.41 606.41 5l5.59 5.59L617.59 5 619 6.41 613.41 12l5.59 5.59-1.41 1.41-5.59-5.59-5.59 5.59-1.41-1.41M629 17.59l5.59-5.59L629 6.41 630.41 5l5.59 5.59L641.59 5 643 6.41 637.41 12l5.59 5.59-1.41 1.41-5.59-5.59-5.59 5.59-1.41-1.41M653 17.59l5.59-5.59L653 6.41 654.41 5l5.59 5.59L665.59 5 667 6.41 661.41 12l5.59 5.59-1.41 1.41-5.59-5.59-5.59 5.59-1.41-1.41M677 17.59l5.59-5.59L677 6.41 678.41 5l5.59 5.59L689.59 5 691 6.41 685.41 12l5.59 5.59-1.41 1.41-5.59-5.59-5.59 5.59-1.41-1.41M701 17.59l5.59-5.59L701 6.41 702.41 5l5.59 5.59L713.59 5 715 6.41 709.41 12l5.59 5.59-1.41 1.41-5.59-5.59-5.59 5.59-1.41-1.41M725 17.59l5.59-5.59L725 6.41 726.41 5l5.59 5.59L737.59 5 739 6.41 733.41 12l5.59 5.59-1.41 1.41-5.59-5.59-5.59 5.59-1.41-1.41M732 7" fill="#000000"/></svg>