<svg xmlns="http://www.w3.org/2000/svg" xmlns:xlink="http://www.w3.org/1999/xlink" viewBox="0 0 87.6 87.6"><defs><style>.a,.b{fill:#fff;}.a{opacity:0.06;}.c{filter:url(#a);}</style><filter id="a" x="0" y="0" width="87.6" height="87.6" filterUnits="userSpaceOnUse"><feOffset dy="3" input="SourceAlpha"/><feGaussianBlur stdDeviation="3" result="b"/><feFlood flood-opacity="0.161"/><feComposite operator="in" in2="b"/><feComposite in="SourceGraphic"/></filter></defs><g transform="translate(-1683 -18)"><g class="c" transform="matrix(1, 0, 0, 1, 1683, 18)"><rect class="a" width="69.6" height="69.6" rx="34.8" transform="translate(9 6)"/></g><g transform="translate(1706 38)"><path class="b" d="M40.947,20.473A20.473,20.473,0,0,0,0,20.473,20.646,20.646,0,0,0,6.607,35.549h0l.651.558.093.093,1.117.838c.093.093.279.186.372.279a8.5,8.5,0,0,0,1.21.744c.093.093.186.093.279.186.465.279.931.465,1.4.744a.091.091,0,0,1,.093.093,23.429,23.429,0,0,0,4.932,1.582h.093a10.255,10.255,0,0,0,1.675.186h.186c.558,0,1.117.093,1.675.093a10.115,10.115,0,0,0,1.675-.093h.186c.558-.093,1.117-.093,1.582-.186h.186a20.889,20.889,0,0,0,4.839-1.489c.093,0,.093-.093.186-.093a10.172,10.172,0,0,0,1.4-.744c.093-.093.186-.093.372-.186.372-.279.838-.465,1.21-.744.093-.093.279-.186.372-.279a8.137,8.137,0,0,0,.931-.744c.093-.093.186-.093.186-.186l.651-.558h0a20.484,20.484,0,0,0,6.793-15.169Zm-39.458,0A18.984,18.984,0,1,1,33.037,34.712a2.333,2.333,0,0,0-.651-.372l-6.328-3.257a1.658,1.658,0,0,1-.931-1.489V27.36a3.94,3.94,0,0,0,.465-.651,13.441,13.441,0,0,0,1.954-3.815,2.772,2.772,0,0,0,1.582-2.42V17.868a2.938,2.938,0,0,0-.651-1.768V12.656a6.162,6.162,0,0,0-1.4-4.374c-1.4-1.582-3.629-2.327-6.607-2.327s-5.211.838-6.607,2.327a6.162,6.162,0,0,0-1.4,4.374V16.1a2.456,2.456,0,0,0-.651,1.768v2.606a2.782,2.782,0,0,0,1.024,2.14,12.834,12.834,0,0,0,2.327,4.746V29.5a1.762,1.762,0,0,1-.838,1.489L8.375,34.246a1.947,1.947,0,0,0-.558.372A19,19,0,0,1,1.489,20.473Zm0,0"/></g></g></svg>