<svg xmlns="http://www.w3.org/2000/svg" xmlns:xlink="http://www.w3.org/1999/xlink" viewBox="0 0 380.445 252.38">
  <defs>
    <style>
      .cls-1, .cls-2, .cls-21 {
        fill: #6c63ff;
      }

      .cls-1, .cls-11, .cls-17, .cls-20, .cls-7 {
        opacity: 0.1;
      }

      .cls-11, .cls-19, .cls-3 {
        fill: none;
        stroke-miterlimit: 10;
      }

      .cls-3 {
        stroke: #535461;
        stroke-width: 2px;
      }

      .cls-4 {
        fill: #f5f5f5;
      }

      .cls-18, .cls-21, .cls-4 {
        opacity: 0.2;
      }

      .cls-5 {
        fill: #ffb9b9;
      }

      .cls-6 {
        fill: #b96b6b;
      }

      .cls-8 {
        fill: #777b9b;
      }

      .cls-9 {
        fill: #cbcdda;
      }

      .cls-10 {
        opacity: 0.05;
      }

      .cls-11, .cls-19 {
        stroke: #6c63ff;
      }

      .cls-12 {
        fill: #535461;
      }

      .cls-13 {
        opacity: 0.7;
      }

      .cls-14 {
        fill: url(#linear-gradient);
      }

      .cls-15 {
        fill: #3e3f49;
      }

      .cls-16 {
        fill: #e0e0e0;
      }

      .cls-17 {
        fill: #fff;
      }
    </style>
    <linearGradient id="linear-gradient" x1="0.5" y1="1" x2="0.5" gradientUnits="objectBoundingBox">
      <stop offset="0" stop-color="gray" stop-opacity="0.251"/>
      <stop offset="0.54" stop-color="gray" stop-opacity="0.122"/>
      <stop offset="1" stop-color="gray" stop-opacity="0.102"/>
    </linearGradient>
  </defs>
  <g id="undraw_freelancer_b0my" transform="translate(0 0.011)">
    <ellipse id="Ellipse_25" data-name="Ellipse 25" class="cls-1" cx="169.914" cy="37.525" rx="169.914" ry="37.525" transform="translate(0 177.318)"/>
    <path id="Path_164" data-name="Path 164" class="cls-2" d="M121.48,406.21s15.826,14.764,6.893,36.681,15.316,58.34,15.316,58.34-.26-.034-.741-.115c-32.5-5.359-48.658-40.038-30.581-65.8C119.086,425.732,124.588,414.5,121.48,406.21Z" transform="translate(-79.909 -293.668)"/>
    <path id="Path_165" data-name="Path 165" class="cls-3" d="M147.378,406.21s8.933,18.1,0,32.86-1.532,56.2,22.209,62.154" transform="translate(-105.807 -293.668)"/>
    <path id="Path_166" data-name="Path 166" class="cls-2" d="M70.25,597.592s18.06-2.684,19.7,12.416,34.717,17.19,34.717,17.19-.217.137-.621.386c-27.293,16.72-53.4,10.644-49.469-11.566C76.035,607.759,75.918,599.46,70.25,597.592Z" transform="translate(-56.867 -425.324)"/>
    <path id="Path_167" data-name="Path 167" class="cls-4" d="M70.25,597.592s18.06-2.684,19.7,12.416,34.717,17.19,34.717,17.19-.217.137-.621.386c-27.293,16.72-53.4,10.644-49.469-11.566C76.035,607.759,75.918,599.46,70.25,597.592Z" transform="translate(-56.867 -425.324)"/>
    <path id="Path_168" data-name="Path 168" class="cls-3" d="M70.25,598s14.02,2.871,12.865,14.761,20.817,26.159,41.564,14.845" transform="translate(-56.867 -425.733)"/>
    <path id="Path_169" data-name="Path 169" class="cls-1" d="M430.47,157.151c-2.32,10.607-14.231,15.926-20.9,23.838-12.575,14.913-7.678,36.7.3,54.142,2.671,5.842,5.7,12.024,4.57,18.286-1.379,7.661-8.706,13.26-16.4,16.231a51.918,51.918,0,0,1-43.7-3.36c-11.136-6.462-19.115-16.975-30.441-23.144-18.958-10.323-43.086-6.424-63.673.688-14.561,5.029-30.484,11.575-44.956,6.315-10.182-3.7-17.222-12.706-21.057-22.25-1.849-4.609-3.195-9.6-6.73-13.251a25.057,25.057,0,0,0-7.654-5.014c-25.664-11.871-58.085-5.512-83-18.685C80,182.058,69.216,165.289,64.446,147.8s-4.216-35.812-3-53.837c.861-12.8,2.407-26.47,11.173-36.342C81.888,47.18,97.788,43.29,112.189,45.28s27.423,9.065,38.9,17.4C165.44,73.1,178.719,86.078,196.322,90.3c11.987,2.874,24.6,1.3,36.961.757,20.67-.909,41.347,1.115,61.9,3.332,10.015,1.081,20.063,2.214,29.99,3.858q3.338.551,6.676,1.186,1.669.311,3.338.666c.868.178,1.733.364,2.6.554q2.046.448,4.079.934,5.839,1.4,11.564,3.223c13.266,4.226,23.9,11.9,36.43,17.255,8.165,3.494,17.068,4.459,24.8,8.906C424.181,136.461,432.91,146,430.47,157.151Z" transform="translate(-50.439 -44.79)"/>
    <path id="Path_170" data-name="Path 170" class="cls-5" d="M622.017,688.546s13.72-1.015,17.669,3.388,18.046,14.5,12.228,16.748-37.054-6.73-37.054-6.73Z" transform="translate(-419.675 -488.012)"/>
    <path id="Path_171" data-name="Path 171" class="cls-6" d="M334.575,168.708a6.861,6.861,0,0,0-5.835-6.069c-2.09-.311-4.423.24-6.219-.81a11.064,11.064,0,0,1-2.046-1.868c-2.564-2.557-6.413-3.737-10.165-3.84a38.8,38.8,0,0,0-11.056,1.713c-7.2,1.934-14.8,4.771-18.631,10.775-5.822,9.14-.451,21.459-5.054,31.185-2,4.248-5.822,7.717-7.064,12.214-1.669,6.007,1.622,12.1,4.156,17.838a80.871,80.871,0,0,1,5.154,15.944c1.018,4.821,1.586,9.831.437,14.636-.5,2.1-1.335,4.241-.888,6.353.668,3.2,3.979,5.21,6.99,6.851l.784.43c4.34,2.367,8.8,4.783,13.773,5.369a15.176,15.176,0,0,0,9.013-1.51,9.194,9.194,0,0,0,4.931-6.994c.254-3.273-1.7-6.337-2.12-9.6a2.732,2.732,0,0,1,.117-1.47,3.742,3.742,0,0,1,1.516-1.411c8.559-5.568,13.149-15.988,11.256-25.561-1.288-6.521-5.294-13-3.355-19.385,1.072-3.525,3.832-6.381,5.381-9.747a15.341,15.341,0,0,0,.574-11.342c-.885-2.572-2.487-5.141-1.936-7.785.971-4.7,7.678-6.194,10.212-10.354a7.086,7.086,0,0,0-2.4-9.442" transform="translate(-188.639 -121.454)"/>
    <path id="Path_172" data-name="Path 172" class="cls-7" d="M334.575,168.708a6.861,6.861,0,0,0-5.835-6.069c-2.09-.311-4.423.24-6.219-.81a11.064,11.064,0,0,1-2.046-1.868c-2.564-2.557-6.413-3.737-10.165-3.84a38.8,38.8,0,0,0-11.056,1.713c-7.2,1.934-14.8,4.771-18.631,10.775-5.822,9.14-.451,21.459-5.054,31.185-2,4.248-5.822,7.717-7.064,12.214-1.669,6.007,1.622,12.1,4.156,17.838a80.871,80.871,0,0,1,5.154,15.944c1.018,4.821,1.586,9.831.437,14.636-.5,2.1-1.335,4.241-.888,6.353.668,3.2,3.979,5.21,6.99,6.851l.784.43c4.34,2.367,8.8,4.783,13.773,5.369a15.176,15.176,0,0,0,9.013-1.51,9.194,9.194,0,0,0,4.931-6.994c.254-3.273-1.7-6.337-2.12-9.6a2.732,2.732,0,0,1,.117-1.47,3.742,3.742,0,0,1,1.516-1.411c8.559-5.568,13.149-15.988,11.256-25.561-1.288-6.521-5.294-13-3.355-19.385,1.072-3.525,3.832-6.381,5.381-9.747a15.341,15.341,0,0,0,.574-11.342c-.885-2.572-2.487-5.141-1.936-7.785.971-4.7,7.678-6.194,10.212-10.354a7.086,7.086,0,0,0-2.4-9.442" transform="translate(-188.639 -121.454)"/>
    <path id="Path_173" data-name="Path 173" class="cls-8" d="M335.271,596.742H263.5V560.93l40.058,14.325,31.713-14.325Z" transform="translate(-175.538 -386.259)"/>
    <path id="Path_174" data-name="Path 174" class="cls-7" d="M335.271,596.742H263.5V560.93l40.058,14.325,31.713-14.325Z" transform="translate(-175.538 -386.259)"/>
    <path id="Path_175" data-name="Path 175" class="cls-5" d="M453.745,723.812s-13.019,2.9-14.354,8.221,7.678,4.836,7.678,4.836,12.685-2.42,14.354-12.092S453.745,723.812,453.745,723.812Z" transform="translate(-302.691 -509.887)"/>
    <path id="Path_176" data-name="Path 176" class="cls-7" d="M453.745,723.812s-13.019,2.9-14.354,8.221,7.678,4.836,7.678,4.836,12.685-2.42,14.354-12.092S453.745,723.812,453.745,723.812Z" transform="translate(-302.691 -509.887)"/>
    <path id="Path_177" data-name="Path 177" class="cls-9" d="M353.1,751.734s-12.275.744-12.441,10.034c-.023,1.246,12.785,1.607,27.991-6.02s16.24-8.43,16.24-8.43-5.875-8.832-10.015-10.034S353.1,751.734,353.1,751.734Z" transform="translate(-237.009 -521.597)"/>
    <path id="Path_178" data-name="Path 178" class="cls-8" d="M155.137,653.094s-14.02,10.9,12.018,26.159,51.074,12.456,51.074,12.456,27.16-3,31.272-14.892-20.256-21.855-20.256-21.855-26.706,0-38.723-7.162S155.137,653.094,155.137,653.094Z" transform="translate(-110.906 -458.495)"/>
    <path id="Path_179" data-name="Path 179" class="cls-8" d="M357.841,602.485s12.018,6.54,28.375,0c12.585-5.032,40.192-3.058,52.253-1.868,5.655.551,10.5,4.185,12.044,9.289,1.262,4.164.334,9.28-7.217,14.076-16.691,10.588-28.375,13.7-32.714,18.062s-16.691,6.54-16.691,6.54-15.69-2.18-15.69-5.294,14.354-18.373,14.354-18.373-21.031,18.062-42.729-6.228S357.841,602.485,357.841,602.485Z" transform="translate(-237.833 -426.571)"/>
    <path id="Path_180" data-name="Path 180" class="cls-5" d="M287.055,328.391,244.66,301.3S265,288.434,266.742,276.936a8.829,8.829,0,0,0-1.385-6.468c-8.346-12.456,29.376,0,29.376,0a68.931,68.931,0,0,0,1.419,9.654c1.639,7.583,5.1,17.682,12.268,22.733C320.771,311.575,287.055,328.391,287.055,328.391Z" transform="translate(-173.056 -196.386)"/>
    <path id="Path_181" data-name="Path 181" class="cls-7" d="M335.049,280.11a26.1,26.1,0,0,1-29.41-3.173,8.828,8.828,0,0,0-1.385-6.468c-8.346-12.456,29.376,0,29.376,0a68.925,68.925,0,0,0,1.419,9.641Z" transform="translate(-211.953 -196.386)"/>
    <ellipse id="Ellipse_26" data-name="Ellipse 26" class="cls-5" cx="24.703" cy="23.044" rx="24.703" ry="23.044" transform="translate(85.959 40.142)"/>
    <path id="Path_182" data-name="Path 182" class="cls-7" d="M237.118,338.824s-5.007,27.4-13.353,25.847-34.383-28.961-34.383-28.961-27.039,8.408-22.7,28.961,8.679,37.992-.334,44.532-14.688,37.058-14.688,37.058,28.709-11.211,43.73-6.851,30.378,2.18,34.05-1.868,9.013-12.768,9.013-12.768-7.678-10.588-4.006-15.882,8.345-5.605,11.016-20.553,23.7-20.242,19.7-28.65S253.475,338.824,237.118,338.824Z" transform="translate(-111.101 -245.122)"/>
    <path id="Path_183" data-name="Path 183" class="cls-9" d="M237.118,334.824s-5.007,27.4-13.353,25.847-34.383-28.961-34.383-28.961-27.039,8.408-22.7,28.961,8.679,37.992-.334,44.532-14.688,37.058-14.688,37.058,28.709-11.211,43.73-6.851,30.378,2.18,34.05-1.868,9.013-12.768,9.013-12.768-7.678-10.588-4.006-15.882,8.345-5.605,11.016-20.553,23.7-20.242,19.7-28.65S253.475,334.824,237.118,334.824Z" transform="translate(-111.101 -242.368)"/>
    <path id="Path_184" data-name="Path 184" class="cls-5" d="M458.334,700.02s13.353-3.114,18.026.623,20.363,11.522,15.022,14.636-37.722-.934-37.722-.934Z" transform="translate(-312.287 -495.145)"/>
    <g id="Group_83" data-name="Group 83" class="cls-10" transform="translate(40.559 89.342)">
      <path id="Path_185" data-name="Path 185" d="M290.789,360.671a3.793,3.793,0,0,0,2.293-.311c-9.273-3.338-33.339-28.65-33.339-28.65s-.948.3-2.464.909C261.88,337.387,283.355,359.285,290.789,360.671Z" transform="translate(-222.022 -331.71)"/>
      <path id="Path_186" data-name="Path 186" d="M379.341,407.79c9.207-3.3-17.025,13.7-19.7,28.65S352.3,451.7,348.63,456.993s4.006,15.882,4.006,15.882-5.341,8.72-9.013,12.768c-2.1,2.32-8.042,4.02-15.553,4.235,9.06.268,16.484-1.585,18.891-4.235,3.672-4.048,9.013-12.768,9.013-12.768s-7.678-10.588-4.006-15.882,8.345-5.605,11.016-20.553S377.172,408.569,379.341,407.79Z" transform="translate(-269.181 -383.811)"/>
      <path id="Path_187" data-name="Path 187" d="M151.917,668.046c-.17.832-.257,1.3-.257,1.3s18.667-7.29,33.776-7.826C173.776,661.07,158.707,665.7,151.917,668.046Z" transform="translate(-151.66 -558.794)"/>
    </g>
    <path id="Path_188" data-name="Path 188" class="cls-9" d="M454.592,403.71s3,.311,6.009,14.948,14.688,28.65,14.688,28.65a66.4,66.4,0,0,1,10.682,19c4.006,11.211,21.865,26,28.208,26.626,0,0-12.184,11.366-10.849,14.481s-1.335,0-1.335,0-16.691-5.917-20.363-15.571-19.7-25.224-19.7-25.224S440.572,428,439.57,421.772,454.592,403.71,454.592,403.71Z" transform="translate(-302.871 -291.947)"/>
    <path id="Path_189" data-name="Path 189" class="cls-7" d="M209.16,572.21s25.7,2.8,31.379,10.276,31.963-4.341,31.963-4.341" transform="translate(-149.406 -407.974)"/>
    <path id="Path_190" data-name="Path 190" class="cls-7" d="M229.076,420.489s11.016,37.681,15.022,42.352,35.051,42.975,49.739,40.483c0,0-4.34,17.439-7.344,18.062,0,0-30.378-28.027-40.726-27.716,0,0-19.028-14.636-21.031-21.8s-18.026-30.518-18.026-30.518-8.012-16.5-4.673-23.667S223.067,413.638,229.076,420.489Z" transform="translate(-144.118 -298.761)"/>
    <path id="Path_191" data-name="Path 191" class="cls-9" d="M230.076,418.489s11.016,37.681,15.022,42.352,35.051,42.975,49.739,40.483c0,0-4.34,17.439-7.344,18.062,0,0-30.378-28.027-40.726-27.715,0,0-19.028-14.636-21.031-21.8s-18.026-30.518-18.026-30.518-8.012-16.5-4.673-23.667S224.067,411.638,230.076,418.489Z" transform="translate(-144.785 -297.384)"/>
    <path id="Path_192" data-name="Path 192" class="cls-7" d="M282.575,149.708a6.861,6.861,0,0,0-5.835-6.069c-2.09-.311-4.423.24-6.219-.81a11.063,11.063,0,0,1-2.046-1.868c-2.564-2.557-6.413-3.737-10.165-3.84a38.8,38.8,0,0,0-11.056,1.713c-7.2,1.934-14.8,4.771-18.63,10.775-5.822,9.14-.451,21.459-5.054,31.185-2,4.248-5.822,7.717-7.064,12.214-1.669,6.007,1.622,12.1,4.156,17.838a80.867,80.867,0,0,1,5.154,15.944c1.018,4.821,1.586,9.831.437,14.636-.5,2.1-1.335,4.241-.888,6.353.668,3.2,3.979,5.21,6.99,6.851l.784.43c4.34,2.367,8.8,4.783,13.773,5.369a15.175,15.175,0,0,0,9.013-1.51,9.2,9.2,0,0,0,4.93-6.994c.254-3.273-1.7-6.337-2.12-9.6a2.731,2.731,0,0,1,.117-1.47,3.741,3.741,0,0,1,1.516-1.411c8.559-5.568,13.149-15.988,11.256-25.561-1.289-6.521-5.294-13-3.355-19.385,1.072-3.525,3.832-6.381,5.381-9.747a15.341,15.341,0,0,0,.574-11.342c-.885-2.572-2.487-5.141-1.936-7.785.971-4.7,7.678-6.194,10.212-10.354a7.087,7.087,0,0,0-2.4-9.442" transform="translate(-153.997 -108.371)"/>
    <path id="Path_193" data-name="Path 193" class="cls-6" d="M280.575,148.708a6.861,6.861,0,0,0-5.835-6.069c-2.09-.311-4.423.24-6.219-.81a11.062,11.062,0,0,1-2.046-1.868c-2.564-2.557-6.413-3.737-10.165-3.84a38.8,38.8,0,0,0-11.056,1.713c-7.2,1.934-14.8,4.771-18.631,10.775-5.822,9.14-.451,21.459-5.054,31.185-2,4.248-5.822,7.717-7.064,12.214-1.669,6.007,1.622,12.1,4.156,17.838a80.869,80.869,0,0,1,5.154,15.944c1.018,4.821,1.586,9.831.437,14.636-.5,2.1-1.335,4.241-.888,6.353.668,3.2,3.979,5.21,6.99,6.851l.784.43c4.34,2.367,8.8,4.783,13.773,5.369a15.175,15.175,0,0,0,9.013-1.51,9.2,9.2,0,0,0,4.931-6.994c.254-3.273-1.7-6.337-2.12-9.6a2.731,2.731,0,0,1,.117-1.47,3.741,3.741,0,0,1,1.516-1.411c8.559-5.568,13.149-15.988,11.256-25.561-1.289-6.521-5.294-13-3.355-19.385,1.072-3.525,3.832-6.381,5.381-9.747a15.341,15.341,0,0,0,.574-11.342c-.885-2.572-2.487-5.141-1.936-7.785.971-4.7,7.678-6.194,10.212-10.354a7.087,7.087,0,0,0-2.4-9.442" transform="translate(-152.665 -107.682)"/>
    <path id="Path_194" data-name="Path 194" class="cls-2" d="M456.575,799.247a3.628,3.628,0,0,0,1.279-1.8,1.565,1.565,0,0,0-.895-1.834,2.613,2.613,0,0,0-2.363.775,3.237,3.237,0,0,1-2.3,1.034,3.135,3.135,0,0,0,1.082-3.055,1.239,1.239,0,0,0-.3-.623c-.457-.455-1.282-.258-1.829.1-1.736,1.14-2.22,3.338-2.23,5.319a9.517,9.517,0,0,1-.033-2.18,2.185,2.185,0,0,0-.881-1.937,2.829,2.829,0,0,0-1.335-.3,2.921,2.921,0,0,0-2.183.579,1.9,1.9,0,0,0,.087,2.491,8.612,8.612,0,0,0,2.26,1.688,4.878,4.878,0,0,1,1.616,1.436,1.376,1.376,0,0,1,.12.255h4.884a13.7,13.7,0,0,0,3.024-1.953Z" transform="translate(-305.956 -560.338)"/>
    <rect id="Rectangle_129" data-name="Rectangle 129" class="cls-1" width="106.155" height="6.851" transform="translate(195.285 70.816)"/>
    <rect id="Rectangle_130" data-name="Rectangle 130" class="cls-1" width="106.155" height="6.851" transform="translate(195.285 100.4)"/>
    <rect id="Rectangle_131" data-name="Rectangle 131" class="cls-1" width="106.155" height="6.851" transform="translate(195.285 131.23)"/>
    <rect id="Rectangle_132" data-name="Rectangle 132" class="cls-1" width="6.676" height="17.75" transform="translate(204.632 53.066)"/>
    <rect id="Rectangle_133" data-name="Rectangle 133" class="cls-1" width="6.676" height="1.246" transform="translate(204.632 55.868)"/>
    <rect id="Rectangle_134" data-name="Rectangle 134" class="cls-1" width="6.676" height="1.246" transform="translate(204.632 65.522)"/>
    <rect id="Rectangle_135" data-name="Rectangle 135" class="cls-1" width="6.676" height="17.75" transform="translate(214.646 53.066)"/>
    <rect id="Rectangle_136" data-name="Rectangle 136" class="cls-1" width="6.676" height="1.246" transform="translate(214.646 55.868)"/>
    <rect id="Rectangle_137" data-name="Rectangle 137" class="cls-1" width="6.676" height="1.246" transform="translate(214.646 65.522)"/>
    <rect id="Rectangle_138" data-name="Rectangle 138" class="cls-1" width="6.676" height="17.75" transform="translate(224.661 53.066)"/>
    <rect id="Rectangle_139" data-name="Rectangle 139" class="cls-1" width="6.676" height="1.246" transform="translate(224.661 55.868)"/>
    <rect id="Rectangle_140" data-name="Rectangle 140" class="cls-1" width="6.676" height="1.246" transform="translate(224.661 65.522)"/>
    <rect id="Rectangle_141" data-name="Rectangle 141" class="cls-1" width="6.676" height="17.75" transform="translate(234.676 53.066)"/>
    <rect id="Rectangle_142" data-name="Rectangle 142" class="cls-1" width="6.676" height="1.246" transform="translate(234.676 55.868)"/>
    <rect id="Rectangle_143" data-name="Rectangle 143" class="cls-1" width="6.676" height="1.246" transform="translate(234.676 65.522)"/>
    <rect id="Rectangle_144" data-name="Rectangle 144" class="cls-1" width="6.676" height="17.75" transform="translate(244.69 53.066)"/>
    <rect id="Rectangle_145" data-name="Rectangle 145" class="cls-1" width="6.676" height="1.246" transform="translate(244.69 55.868)"/>
    <rect id="Rectangle_146" data-name="Rectangle 146" class="cls-1" width="6.676" height="1.246" transform="translate(244.69 65.522)"/>
    <rect id="Rectangle_147" data-name="Rectangle 147" class="cls-1" width="6.676" height="17.75" transform="translate(254.705 53.066)"/>
    <rect id="Rectangle_148" data-name="Rectangle 148" class="cls-1" width="6.676" height="1.246" transform="translate(254.705 55.868)"/>
    <rect id="Rectangle_149" data-name="Rectangle 149" class="cls-1" width="6.676" height="1.246" transform="translate(254.705 65.522)"/>
    <rect id="Rectangle_150" data-name="Rectangle 150" class="cls-1" width="6.676" height="17.75" transform="translate(264.719 53.066)"/>
    <rect id="Rectangle_151" data-name="Rectangle 151" class="cls-1" width="6.676" height="1.246" transform="translate(264.719 55.868)"/>
    <rect id="Rectangle_152" data-name="Rectangle 152" class="cls-1" width="6.676" height="1.246" transform="translate(264.719 65.522)"/>
    <path id="Path_222" data-name="Path 222" class="cls-1" d="M0,0,6.586.18,7.1,18.187l-6.586-.18Z" transform="matrix(0.894, -0.448, 0.448, 0.894, 261.477, 115.802)"/>
    <path id="Path_223" data-name="Path 223" class="cls-1" d="M0,0,6.586.18l.036,1.264L.036,1.264Z" transform="matrix(0.894, -0.448, 0.448, 0.894, 262.825, 118.307)"/>
    <path id="Path_224" data-name="Path 224" class="cls-1" d="M0,0,6.586.18l.036,1.264L.036,1.264Z" transform="matrix(0.894, -0.448, 0.448, 0.894, 267.461, 126.937)"/>
    <rect id="Rectangle_156" data-name="Rectangle 156" class="cls-1" width="6.676" height="17.75" transform="translate(204.632 82.961)"/>
    <rect id="Rectangle_157" data-name="Rectangle 157" class="cls-1" width="6.676" height="1.246" transform="translate(204.632 85.764)"/>
    <rect id="Rectangle_158" data-name="Rectangle 158" class="cls-1" width="6.676" height="1.246" transform="translate(204.632 95.417)"/>
    <rect id="Rectangle_159" data-name="Rectangle 159" class="cls-1" width="6.676" height="17.75" transform="translate(214.646 82.961)"/>
    <rect id="Rectangle_160" data-name="Rectangle 160" class="cls-1" width="6.676" height="1.246" transform="translate(214.646 85.764)"/>
    <rect id="Rectangle_161" data-name="Rectangle 161" class="cls-1" width="6.676" height="1.246" transform="translate(214.646 95.417)"/>
    <rect id="Rectangle_162" data-name="Rectangle 162" class="cls-1" width="6.676" height="17.75" transform="translate(224.661 82.961)"/>
    <rect id="Rectangle_163" data-name="Rectangle 163" class="cls-1" width="6.676" height="1.246" transform="translate(224.661 85.764)"/>
    <rect id="Rectangle_164" data-name="Rectangle 164" class="cls-1" width="6.676" height="1.246" transform="translate(224.661 95.417)"/>
    <rect id="Rectangle_165" data-name="Rectangle 165" class="cls-1" width="6.676" height="17.75" transform="translate(266.388 82.961)"/>
    <rect id="Rectangle_166" data-name="Rectangle 166" class="cls-1" width="6.676" height="1.246" transform="translate(266.388 85.764)"/>
    <rect id="Rectangle_167" data-name="Rectangle 167" class="cls-1" width="6.676" height="1.246" transform="translate(266.388 95.417)"/>
    <rect id="Rectangle_168" data-name="Rectangle 168" class="cls-1" width="6.676" height="17.75" transform="translate(276.403 82.961)"/>
    <rect id="Rectangle_169" data-name="Rectangle 169" class="cls-1" width="6.676" height="1.246" transform="translate(276.403 85.764)"/>
    <rect id="Rectangle_170" data-name="Rectangle 170" class="cls-1" width="6.676" height="1.246" transform="translate(276.403 95.417)"/>
    <rect id="Rectangle_171" data-name="Rectangle 171" class="cls-1" width="6.676" height="17.75" transform="translate(286.418 82.961)"/>
    <rect id="Rectangle_172" data-name="Rectangle 172" class="cls-1" width="6.676" height="1.246" transform="translate(286.418 85.764)"/>
    <rect id="Rectangle_173" data-name="Rectangle 173" class="cls-1" width="6.676" height="1.246" transform="translate(286.418 95.417)"/>
    <rect id="Rectangle_174" data-name="Rectangle 174" class="cls-1" width="6.676" height="17.75" transform="translate(204.632 113.479)"/>
    <rect id="Rectangle_175" data-name="Rectangle 175" class="cls-1" width="6.676" height="1.246" transform="translate(204.632 116.282)"/>
    <rect id="Rectangle_176" data-name="Rectangle 176" class="cls-1" width="6.676" height="1.246" transform="translate(204.632 125.936)"/>
    <rect id="Rectangle_177" data-name="Rectangle 177" class="cls-1" width="6.676" height="17.75" transform="translate(214.646 113.479)"/>
    <rect id="Rectangle_178" data-name="Rectangle 178" class="cls-1" width="6.676" height="1.246" transform="translate(214.646 116.282)"/>
    <rect id="Rectangle_179" data-name="Rectangle 179" class="cls-1" width="6.676" height="1.246" transform="translate(214.646 125.936)"/>
    <rect id="Rectangle_180" data-name="Rectangle 180" class="cls-1" width="6.676" height="17.75" transform="translate(224.661 113.479)"/>
    <rect id="Rectangle_181" data-name="Rectangle 181" class="cls-1" width="6.676" height="1.246" transform="translate(224.661 116.282)"/>
    <rect id="Rectangle_182" data-name="Rectangle 182" class="cls-1" width="6.676" height="1.246" transform="translate(224.661 125.936)"/>
    <rect id="Rectangle_183" data-name="Rectangle 183" class="cls-1" width="6.676" height="17.75" transform="translate(234.676 113.479)"/>
    <rect id="Rectangle_184" data-name="Rectangle 184" class="cls-1" width="6.676" height="1.246" transform="translate(234.676 116.282)"/>
    <rect id="Rectangle_185" data-name="Rectangle 185" class="cls-1" width="6.676" height="1.246" transform="translate(234.676 125.936)"/>
    <rect id="Rectangle_186" data-name="Rectangle 186" class="cls-1" width="6.676" height="17.75" transform="translate(244.69 113.479)"/>
    <rect id="Rectangle_187" data-name="Rectangle 187" class="cls-1" width="6.676" height="1.246" transform="translate(244.69 116.282)"/>
    <rect id="Rectangle_188" data-name="Rectangle 188" class="cls-1" width="6.676" height="1.246" transform="translate(244.69 125.936)"/>
    <rect id="Rectangle_189" data-name="Rectangle 189" class="cls-1" width="6.676" height="17.75" transform="translate(254.705 113.479)"/>
    <rect id="Rectangle_190" data-name="Rectangle 190" class="cls-1" width="6.676" height="1.246" transform="translate(254.705 116.282)"/>
    <rect id="Rectangle_191" data-name="Rectangle 191" class="cls-1" width="6.676" height="1.246" transform="translate(254.705 125.936)"/>
    <path id="Path_195" data-name="Path 195" class="cls-1" d="M859.836,217.666v16.168H853.16V216.48Q856.512,217.031,859.836,217.666Z" transform="translate(-578.426 -163.022)"/>
    <rect id="Rectangle_192" data-name="Rectangle 192" class="cls-1" width="6.676" height="1.246" transform="translate(274.734 55.868)"/>
    <rect id="Rectangle_193" data-name="Rectangle 193" class="cls-1" width="6.676" height="1.246" transform="translate(274.734 65.522)"/>
    <path id="Path_196" data-name="Path 196" class="cls-1" d="M889.836,223.925v14.013H883.16V222.43c.868.178,1.733.364,2.6.554Q887.807,223.433,889.836,223.925Z" transform="translate(-598.411 -167.119)"/>
    <path id="Path_197" data-name="Path 197" class="cls-1" d="M889.836,225.164v.311H883.16V224.23h2.6Q887.807,224.672,889.836,225.164Z" transform="translate(-598.411 -168.359)"/>
    <rect id="Rectangle_194" data-name="Rectangle 194" class="cls-1" width="6.676" height="1.246" transform="translate(284.749 65.522)"/>
    <ellipse id="Ellipse_27" data-name="Ellipse 27" class="cls-1" cx="12.462" cy="11.625" rx="12.462" ry="11.625" transform="translate(36.51 38.738)"/>
    <ellipse id="Ellipse_28" data-name="Ellipse 28" class="cls-1" cx="10.575" cy="9.865" rx="10.575" ry="9.865" transform="translate(38.396 40.497)"/>
    <ellipse id="Ellipse_29" data-name="Ellipse 29" class="cls-1" cx="0.754" cy="0.704" rx="0.754" ry="0.704" transform="translate(48.217 49.659)"/>
    <line id="Line_9" data-name="Line 9" class="cls-11" x1="4.159" y2="6.789" transform="translate(49.345 42.967)"/>
    <line id="Line_10" data-name="Line 10" class="cls-11" x1="4.039" y1="1.984" transform="translate(49.652 50.671)"/>
    <rect id="Rectangle_195" data-name="Rectangle 195" class="cls-12" width="39.2" height="5.166" rx="2.583" transform="translate(156.315 222.8)"/>
    <g id="Group_84" data-name="Group 84" class="cls-13" transform="translate(180.173 165.192)">
      <rect id="Rectangle_196" data-name="Rectangle 196" class="cls-14" width="97.425" height="62.843" rx="28.22"/>
    </g>
    <rect id="Rectangle_197" data-name="Rectangle 197" class="cls-15" width="92.291" height="61.681" rx="26.84" transform="translate(181.912 166.351)"/>
    <rect id="Rectangle_198" data-name="Rectangle 198" class="cls-12" width="92.291" height="61.681" rx="26.84" transform="translate(183.19 166.351)"/>
    <ellipse id="Ellipse_30" data-name="Ellipse 30" class="cls-16" cx="2.981" cy="2.781" rx="2.981" ry="2.781" transform="translate(230.666 193.985)"/>
    <path id="Path_198" data-name="Path 198" class="cls-2" d="M235.063,763.874s-5.3-1.675-7.851,2.681a7.483,7.483,0,0,0,.114,7.651,12.175,12.175,0,0,0,11.684,6.166c5.548-.277,7.394-4.226,7.895-7.9a7.857,7.857,0,0,0-3.167-7.364,9.2,9.2,0,0,0-8.386-1.324Z" transform="translate(-160.768 -539.564)"/>
    <path id="Path_199" data-name="Path 199" class="cls-17" d="M228.46,774.3a7.482,7.482,0,0,1-.113-7.651c2.55-4.36,7.851-2.681,7.851-2.681l.27-.09a9.2,9.2,0,0,1,6.229.131,9.173,9.173,0,0,0-7.344-.654l-.27.09s-5.3-1.675-7.851,2.681a7.482,7.482,0,0,0,.113,7.651,12.331,12.331,0,0,0,6.009,5.294A12.674,12.674,0,0,1,228.46,774.3Z" transform="translate(-160.782 -539.262)"/>
    <path id="Path_200" data-name="Path 200" class="cls-18" d="M244.52,771.85s1.966,1.442,6.736,0" transform="translate(-172.962 -545.444)"/>
    <path id="Path_201" data-name="Path 201" class="cls-2" d="M243.26,738.21s3.368,8.511,3.088,10.737l2.671-.262s-4.493-7.474-3.368-10.476Z" transform="translate(-172.123 -522.28)"/>
    <path id="Path_202" data-name="Path 202" class="cls-18" d="M243.26,738.21s3.368,8.511,3.088,10.737l2.671-.262s-4.493-7.474-3.368-10.476Z" transform="translate(-172.123 -522.28)"/>
    <path id="Path_203" data-name="Path 203" class="cls-2" d="M263.665,737.7s-5.3-2.529-7.678-.439-2.737,7.43-2.737,7.43S261.9,745.8,263.665,737.7Z" transform="translate(-178.778 -521.057)"/>
    <path id="Path_204" data-name="Path 204" class="cls-17" d="M263.665,737.7s-5.3-2.529-7.678-.439-2.737,7.43-2.737,7.43S261.9,745.8,263.665,737.7Z" transform="translate(-178.778 -521.057)"/>
    <path id="Path_205" data-name="Path 205" class="cls-19" d="M253.26,747.491s1.392-6.2,10.412-6.991" transform="translate(-178.785 -523.857)"/>
    <g id="Group_85" data-name="Group 85" class="cls-20" transform="translate(241.436 90.845)">
      <path id="Path_206" data-name="Path 206" class="cls-2" d="M756.8,347.023a2.64,2.64,0,0,0-3,1.025,2.858,2.858,0,0,0,.043,2.921,4.633,4.633,0,0,0,4.456,2.354,3.056,3.056,0,0,0,3-3.018,3.016,3.016,0,0,0-1.218-2.8,3.531,3.531,0,0,0-3.2-.516Z" transform="translate(-753.412 -343.612)"/>
      <path id="Path_207" data-name="Path 207" class="cls-1" d="M754.3,351a2.858,2.858,0,0,1-.043-2.921,2.643,2.643,0,0,1,3-1.025l.1-.034a3.516,3.516,0,0,1,2.38.05,3.5,3.5,0,0,0-2.807-.249l-.1.034a2.64,2.64,0,0,0-3,1.025,2.859,2.859,0,0,0,.043,2.921,4.74,4.74,0,0,0,2.29,2.021A4.829,4.829,0,0,1,754.3,351Z" transform="translate(-753.438 -343.494)"/>
      <path id="Path_208" data-name="Path 208" class="cls-21" d="M760.42,350.06s.751.551,2.574,0" transform="translate(-758.08 -345.849)"/>
      <path id="Path_209" data-name="Path 209" class="cls-2" d="M759.93,337.21s1.285,3.251,1.178,4.1l1.018-.1s-1.716-2.849-1.285-4Z" transform="translate(-757.754 -337)"/>
      <path id="Path_210" data-name="Path 210" class="cls-21" d="M759.93,337.21s1.285,3.251,1.178,4.1l1.018-.1s-1.716-2.849-1.285-4Z" transform="translate(-757.754 -337)"/>
      <path id="Path_211" data-name="Path 211" class="cls-2" d="M767.736,337.021s-2.026-.965-2.931-.168-1.045,2.837-1.045,2.837S767.061,340.107,767.736,337.021Z" transform="translate(-760.306 -336.537)"/>
      <path id="Path_212" data-name="Path 212" class="cls-1" d="M767.736,337.021s-2.026-.965-2.931-.168-1.045,2.837-1.045,2.837S767.061,340.107,767.736,337.021Z" transform="translate(-760.306 -336.537)"/>
      <path id="Path_213" data-name="Path 213" class="cls-2" d="M763.75,340.752s.531-2.367,3.976-2.672" transform="translate(-760.299 -337.6)"/>
    </g>
    <g id="Group_86" data-name="Group 86" class="cls-20" transform="translate(284.165 121.675)">
      <path id="Path_214" data-name="Path 214" class="cls-2" d="M884.8,446.023a2.639,2.639,0,0,0-3,1.025,2.859,2.859,0,0,0,.043,2.921,4.633,4.633,0,0,0,4.456,2.354,3.056,3.056,0,0,0,3-3.018,3.016,3.016,0,0,0-1.218-2.8,3.53,3.53,0,0,0-3.2-.516Z" transform="translate(-881.412 -442.612)"/>
      <path id="Path_215" data-name="Path 215" class="cls-1" d="M882.3,450a2.859,2.859,0,0,1-.043-2.921,2.643,2.643,0,0,1,3-1.025l.1-.034a3.516,3.516,0,0,1,2.38.05,3.5,3.5,0,0,0-2.807-.249l-.1.034a2.64,2.64,0,0,0-3,1.025,2.858,2.858,0,0,0,.043,2.921,4.739,4.739,0,0,0,2.29,2.021A4.829,4.829,0,0,1,882.3,450Z" transform="translate(-881.438 -442.494)"/>
      <path id="Path_216" data-name="Path 216" class="cls-21" d="M888.42,449.06s.751.551,2.574,0" transform="translate(-886.081 -444.849)"/>
      <path id="Path_217" data-name="Path 217" class="cls-2" d="M887.93,436.21s1.285,3.251,1.178,4.1l1.018-.1s-1.716-2.849-1.285-4Z" transform="translate(-885.754 -436)"/>
      <path id="Path_218" data-name="Path 218" class="cls-21" d="M887.93,436.21s1.285,3.251,1.178,4.1l1.018-.1s-1.716-2.849-1.285-4Z" transform="translate(-885.754 -436)"/>
      <path id="Path_219" data-name="Path 219" class="cls-2" d="M895.736,436.021s-2.026-.965-2.931-.168-1.045,2.837-1.045,2.837S895.061,439.107,895.736,436.021Z" transform="translate(-888.305 -435.537)"/>
      <path id="Path_220" data-name="Path 220" class="cls-1" d="M895.736,436.021s-2.026-.965-2.931-.168-1.045,2.837-1.045,2.837S895.061,439.107,895.736,436.021Z" transform="translate(-888.305 -435.537)"/>
      <path id="Path_221" data-name="Path 221" class="cls-2" d="M891.75,439.752s.531-2.367,3.976-2.672" transform="translate(-888.299 -436.6)"/>
    </g>
  </g>
</svg>
